<svg width="422" height="422" viewBox="0 0 422 422" fill="none" xmlns="http://www.w3.org/2000/svg">
<path d="M215.68 0.985012C159.988 1.74832 105.756 26.8748 69.1397 72.5001C68.0025 72.4439 66.9214 72.355 65.7748 72.355C29.8043 72.355 0.399902 101.759 0.399902 137.73C0.399902 159.487 11.1442 178.774 27.6001 190.67C27.1508 253.41 56.7331 315.111 112.865 351.985C126.292 360.807 140.552 367.19 155.13 372.02C162.468 400.086 188.021 421.015 218.31 421.015C248.768 421.015 274.461 399.88 281.64 371.58C319.445 358.387 353.529 333.785 377.285 298.02L403.465 315.275L406.535 255.46L409.755 195.79L356.52 222.99L303.285 250.05L331.365 268.475C315.986 291.36 294.8 307.703 271.255 317.615C259.368 301.09 240.124 290.27 218.31 290.27C196.473 290.27 176.962 301.053 165.08 317.615C157.531 314.62 150.066 311.002 142.995 306.355C105.541 281.752 84.3638 242.347 81.7149 201.055C110.043 193.899 131.15 168.206 131.15 137.73C131.15 123.414 126.442 110.207 118.57 99.4101C163.166 51.3793 236.333 40.6621 293.045 77.9102C293.574 78.2565 294 78.7151 294.51 79.0802C292.156 85.81 290.85 93.0734 290.85 100.58C290.85 136.551 320.255 165.955 356.225 165.955C392.195 165.955 421.6 136.551 421.6 100.58C421.6 64.6096 392.195 35.2099 356.225 35.2099C347.951 35.2099 339.981 36.7636 332.68 39.595C329.572 37.0351 326.418 34.6529 323.03 32.4299C290.008 10.7405 252.558 0.479572 215.68 0.985012ZM356.225 56.9999C380.421 56.9999 399.81 76.3845 399.81 100.58C399.81 111.391 395.865 121.219 389.425 128.81C387.01 126.081 384.235 124.883 381.675 124.275C377.43 119.679 378.455 101.605 378.455 101.605C378.511 101.301 378.567 101.039 378.6 100.73C378.6 100.73 384.385 80.9943 368.95 73.9649C368.95 73.9649 366.114 73.3144 363.98 73.8199C362.51 73.4595 361.073 73.2302 359.735 73.2302C359.342 73.2302 359.07 73.3519 358.71 73.3799C358.345 73.3519 357.919 73.2302 357.54 73.2302C355.855 73.2302 354.011 73.5437 352.13 74.11L351.985 74.2551C346.991 76.0007 338.502 82.651 339.845 95.9001C339.808 95.9469 339.733 96.0031 339.7 96.0499C338.31 97.7955 338.549 100.187 338.97 102.19C339.087 106.318 339.358 117.994 338.24 123.835C337.856 123.915 337.43 123.915 337.07 123.98C333.401 124.635 328.964 126.217 325.805 131.88C317.676 123.98 312.645 112.907 312.645 100.58C312.645 76.3845 332.029 56.9999 356.225 56.9999ZM367.635 87.7101C368.229 89.3762 369.947 93.5414 372.75 96.7799V100.58L373.63 97.6551C373.658 97.6785 373.752 97.7768 373.775 97.8002C373.77 97.8283 373.78 97.9219 373.775 97.9499C374.206 98.3618 374.767 98.6239 375.24 98.9702C375.31 99.5786 375.109 100.566 374.8 101.9C373.761 106.379 372.001 106.58 371.58 106.58C371.58 106.58 371.351 110.825 367.49 115.35V115.5C364.481 118.561 361.35 120.002 358.275 119.885C354.447 119.726 351.437 117.082 349.94 115.5C345.995 110.928 345.84 106.58 345.84 106.58H345.695C345.466 106.58 344.787 106.514 344.09 105.7L343.355 104.385C343.051 103.739 342.728 102.976 342.48 101.9C341.918 99.4709 342.068 98.4835 342.48 98.095C343.318 98.1512 344.146 98.1231 344.965 98.095L345.99 103.65L347.16 97.9499C348.311 97.8049 349.425 97.6364 350.52 97.3649C355.238 96.1903 359.375 93.8035 362.515 91.66C364.827 90.0829 366.596 88.6648 367.635 87.7101ZM65.7748 94.1451C89.9704 94.1451 109.355 113.534 109.355 137.73C109.355 150.431 104.039 161.818 95.4601 169.76C92.6989 164.953 88.9736 163.236 85.6648 162.445C81.4201 157.849 82.445 139.775 82.445 139.775C82.5011 139.476 82.5573 139.064 82.5901 138.75C82.5901 138.75 88.3745 119.164 72.9399 112.135C72.9399 112.135 70.1038 111.485 67.9697 111.99C66.5002 111.634 65.0635 111.405 63.725 111.405C63.3319 111.405 63.0604 111.377 62.7001 111.405C62.335 111.377 61.9091 111.405 61.5301 111.405C59.8453 111.405 58.0013 111.719 56.12 112.28H55.9749C50.9813 114.026 42.4918 120.676 43.835 133.925C43.7975 133.972 43.8677 134.028 43.835 134.07C42.445 135.821 42.5386 138.212 42.9598 140.215C43.0768 144.343 43.3483 156.019 42.2297 161.86C41.846 161.94 41.4201 162.085 41.0597 162.15C38.3921 162.628 35.411 163.601 32.72 166.25C26.1586 158.626 22.1909 148.653 22.1909 137.73C22.1909 113.534 41.5792 94.1451 65.7748 94.1451ZM367.34 119.885C367.354 121.116 367.415 122.225 367.635 122.81C368.342 124.71 376.447 126.751 379.77 127.345C381.834 127.715 384.071 128.337 386.21 130.415C376.78 133.733 368.402 135.175 361.05 135.535L358.86 137.73L356.665 135.68C340.645 135.577 331.089 130.424 331.07 130.415C333.209 128.337 335.591 127.715 337.65 127.345C340.973 126.751 349.083 124.71 349.79 122.81C350.01 122.239 350.071 121.228 350.085 120.03C352.116 121.556 354.854 122.96 358.13 123.105C358.308 123.114 358.532 123.105 358.71 123.105C361.668 123.105 364.569 122.005 367.34 119.885ZM71.6248 125.735C72.2192 127.401 73.9367 131.566 76.7401 134.805V138.75L77.6199 135.83C77.648 135.849 77.7416 135.802 77.765 135.83C77.7603 135.853 77.7697 135.947 77.765 135.975C78.1955 136.387 78.7571 136.799 79.2298 137.145C79.3 137.753 79.2439 138.591 78.935 139.92C77.896 144.404 76.1363 144.75 75.7198 144.75H75.5701C75.5701 144.75 75.3407 148.85 71.4797 153.38V153.525C68.4705 156.586 65.3396 158.172 62.2648 158.06C58.4366 157.896 55.4273 155.252 53.9297 153.67C53.9251 153.647 53.9297 153.548 53.9297 153.525C49.9845 148.953 49.8301 144.75 49.8301 144.75H49.685C49.4557 144.75 48.7771 144.684 48.0797 143.87L47.345 142.555C47.0408 141.909 46.7179 141.001 46.4698 139.92C45.9082 137.496 46.2077 136.508 46.6149 136.12C47.4526 136.176 48.1359 136.293 48.9549 136.265L50.1249 141.68L51.1498 135.975C52.3011 135.83 53.4149 135.661 54.5101 135.39C59.2275 134.215 63.3646 131.974 66.5049 129.83C68.8168 128.253 70.5859 126.69 71.6248 125.735ZM225.92 126.32L202.955 255.02H209.245L232.205 126.32H225.92ZM193.16 152.5L141.825 189.06V198.715L193.16 235.28V223.14L151.185 193.89L193.16 164.49V152.5ZM239.81 152.5V164.49L281.785 193.89L239.81 223.14V235.28L291.145 198.715V189.06L239.81 152.5ZM71.33 158.06C71.344 159.291 71.4049 160.4 71.6248 160.98C72.3315 162.88 80.4373 164.921 83.7601 165.515C85.8239 165.885 88.2061 166.512 90.3448 168.59C80.9146 171.903 72.3923 173.349 65.0401 173.705L62.8498 175.9L60.6549 173.705C44.6353 173.602 35.2285 168.599 35.2097 168.59C37.3438 166.512 39.5809 165.885 41.6401 165.515C44.9629 164.925 53.0733 162.88 53.78 160.98C53.9999 160.414 54.0608 159.398 54.0748 158.205C56.1059 159.731 58.8437 161.13 62.1197 161.275C62.2976 161.284 62.5222 161.275 62.7001 161.275C65.6578 161.275 68.5594 160.175 71.33 158.06ZM218.31 312.06C242.506 312.06 261.895 331.444 261.895 355.64C261.895 368.229 256.588 379.447 248.15 387.38C245.632 385.386 242.81 384.591 240.395 384.16C236.67 383.491 232.097 382.138 230.45 381.235C230.399 380.486 230.3 378.89 230.45 376.41C230.544 376.307 230.651 376.223 230.745 376.115C232.949 373.162 233.927 370.387 234.4 368.51C235.823 367.509 237.325 365.566 238.2 361.785C238.71 359.59 239.192 356.745 237.62 354.765C237.582 354.718 237.512 354.667 237.47 354.62C238.879 340.73 229.977 333.775 224.75 331.95H224.6C222.695 331.374 220.762 331.089 219.045 331.07H218.9C218.483 331.07 218.104 331.042 217.73 331.07C217.346 331.037 216.953 331.07 216.56 331.07C214.786 331.07 212.97 331.356 211 331.95H210.855C205.623 333.775 196.721 340.73 198.13 354.62C198.088 354.667 198.018 354.718 197.985 354.765C196.408 356.745 196.745 359.59 197.25 361.785C198.135 365.566 199.628 367.509 201.055 368.51C201.523 370.373 202.548 373.04 204.71 375.97V376.115C204.836 376.284 205.019 376.387 205.15 376.555C205.29 378.932 205.215 380.453 205.15 381.235C203.498 382.134 198.926 383.495 195.205 384.16C192.973 384.558 190.394 385.255 188.04 386.94C179.859 379.035 174.73 368.005 174.73 355.64C174.73 331.444 194.119 312.06 218.31 312.06ZM209.54 347.6C209.54 347.6 216.915 355.163 226.065 356.81C226.065 356.81 224.057 353.239 222.41 349.94C222.41 349.94 227.731 355.823 232.35 356.81C232.35 356.81 233.033 355.949 233.815 354.47C233.735 355.252 233.684 355.968 233.52 356.81C233.52 356.81 233.806 356.665 234.11 356.665C234.76 356.665 235.542 357.259 234.69 360.905C233.604 365.604 231.765 365.88 231.33 365.88C231.33 365.88 230.993 370.345 226.94 375.09V375.24C223.79 378.446 220.659 379.892 217.435 379.77C213.424 379.606 210.232 376.897 208.66 375.24C204.527 370.452 204.27 365.88 204.27 365.88H204.125C203.685 365.88 201.851 365.599 200.76 360.905C199.913 357.259 200.84 356.665 201.495 356.665C201.794 356.665 202.08 356.81 202.08 356.81L203.69 361.49C203.69 361.49 202.604 348.587 209.54 347.6ZM226.795 379.92C226.809 381.207 226.856 382.377 227.09 382.99C227.436 383.917 229.491 384.806 231.915 385.62C228.395 389.069 223.327 391.325 217.73 391.325C212.132 391.325 207.204 389.065 203.69 385.62C206.105 384.801 208.169 383.917 208.515 382.99C208.739 382.391 208.791 381.319 208.805 380.065C210.939 381.666 213.714 383.13 217.14 383.28C217.332 383.29 217.538 383.28 217.73 383.28C220.823 383.28 223.889 382.138 226.795 379.92Z" fill="white"/>
</svg>
