<?xml version="1.0" encoding="utf-8"?>
<!-- Generator: Adobe Illustrator 21.0.0, SVG Export Plug-In . SVG Version: 6.00 Build 0)  -->
<svg version="1.1" id="Layer_1" xmlns="http://www.w3.org/2000/svg" xmlns:xlink="http://www.w3.org/1999/xlink" x="0px" y="0px"
	 viewBox="0 0 3600 1884" style="enable-background:new 0 0 3600 1884;" xml:space="preserve">
<style type="text/css">
	.st0{fill:#606578;}
	.st1{fill:#A4B2B8;}
	.st2{fill:#2D334A;}
	.st3{fill:#50556A;}
	.st4{fill:#F7A509;}
	.st5{fill:#B0CAD3;}
	.st6{fill:#798E96;}
	.st7{fill:#ABC5CF;}
	.st8{fill:#967994;}
	.st9{fill:#88AEBC;}
	.st10{fill:#ECF2F4;}
	.st11{fill:#D5E3E8;}
	.st12{fill:#FFFFFF;}
	.st13{fill:none;stroke:#FFFFFF;stroke-width:3.5362;stroke-miterlimit:10;}
	.st14{clip-path:url(#SVGID_2_);fill:none;stroke:#2D334A;stroke-width:3.5362;stroke-miterlimit:10;}
	.st15{fill:#8A8AFF;}
	.st16{fill:#F4F8F9;}
	.st17{fill:#EDC2A8;}
	.st18{fill:#D9AD93;}
	.st19{fill:#D6D6FF;}
	.st20{fill:#C2C2FF;}
	.st21{fill:#828392;}
	.st22{fill:#EBC0A7;}
	.st23{fill:#F5D1BC;}
	.st24{fill:#3B3E54;}
	.st25{fill:none;stroke:#FB7F64;stroke-width:1.4886;stroke-miterlimit:10;}
	.st26{fill:none;stroke:#F7A509;stroke-width:20.5215;stroke-miterlimit:10;}
</style>
<g>
	<path class="st0" d="M2615.9,593.3c-71.6,0-140.8,9.9-206.5,28.4c-168.8-217.3-432.6-357.2-729.1-357.2
		c-439.8,0-807.6,307.7-900.1,719.5c-12.1-2.5-24.6-3.9-37.5-3.9c-100.4,0-181.7,81.4-181.7,181.7c0,12.5,1.3,24.6,3.7,36.4
		C387.9,1243.7,252,1391,223.1,1573.9c-3.8,23.7-5.7,48.1-5.7,72.9c0,86.7,23.8,167.9,65.3,237.3h2872.9
		c84.7-85.9,149.1-191.9,185.4-310.1c21.5-70.3,33.1-145,33.1-222.4C3374.1,932.8,3034.6,593.3,2615.9,593.3z"/>
	<g>
		<path class="st1" d="M1293.5,421.6c50.5,0,93,32.8,106.2,77.6h-212.4C1200.5,454.3,1243.1,421.6,1293.5,421.6z"/>
		<path class="st1" d="M775.9,384.9c74.3,0,137,48.3,156.4,114.2H619.4C638.9,433.2,701.6,384.9,775.9,384.9z"/>
		<path class="st1" d="M1261.4,499.1c-24-80.4-119.1-140.5-232.7-140.5S820,418.7,796,499.1H1261.4z"/>
	</g>
	<g>
		<path class="st2" d="M1182.6,482.2c27.2,0,50.1,18.2,57.2,43.1h-114.3C1132.6,500.4,1155.5,482.2,1182.6,482.2z"/>
		<path class="st2" d="M904,461.8c40,0,73.8,26.8,84.2,63.5H819.7C830.2,488.6,864,461.8,904,461.8z"/>
		<path class="st2" d="M1165.3,525.3c-12.9-44.7-64.1-78.1-125.3-78.1s-112.4,33.4-125.3,78.1H1165.3z"/>
	</g>
	<g>
		<path class="st3" d="M2247.1,1628.3c0,15.5-6.3,29.5-16.4,39.7c-10.1,10.2-24.2,16.4-39.6,16.4H514.8c-2.8,0-5.6-0.2-8.3-0.6
			c-27-4-47.8-27.3-47.8-55.5c0-15.5,6.3-29.5,16.4-39.7c10.2-10.1,24.2-16.4,39.7-16.4H2191
			C2222,1572.2,2247.1,1597.3,2247.1,1628.3z"/>
		<path class="st3" d="M3141.3,1628.3c0,15.5-6.3,29.5-16.4,39.7c-10.1,10.2-24.2,16.4-39.6,16.4H1409c-2.8,0-5.6-0.2-8.3-0.6
			c-27-4-47.8-27.3-47.8-55.5c0-15.5,6.3-29.5,16.4-39.7c10.2-10.1,24.2-16.4,39.7-16.4h1676.2
			C3116.2,1572.2,3141.3,1597.3,3141.3,1628.3z"/>
	</g>
	<path class="st2" d="M2588.7,1374.9c27.5,5.6,49.7,17.6,59.7,23.7c0.1-0.8,0.2-1.6,0.4-2.4c3.2-20.9,7.4-44.4,12.9-69.7
		c-10.9-1.1-36.9-5-63.2-17.8c-34.6-16.9-56.6-42.9-56.6-42.9s34,1.4,68.6,18.2c25.4,12.4,44,29.8,52.1,38.1
		c4.6-21,10.1-43.1,16.6-65.9c-10.5-4-34.3-14.4-56.1-33.2c-29.1-25.2-43.7-55.9-43.7-55.9s32.6,10,61.6,35.2
		c20.3,17.6,33.6,37.9,39.7,48.5c6.6-22.8,14.3-46.2,23.1-70c-9.8-5.5-31.7-19.4-50.4-41.4c-24.9-29.3-34.7-61.9-34.7-61.9
		s30.6,14.9,55.6,44.2c17.2,20.2,27.1,42,31.7,53.5c6.1-15.9,12.7-32,19.9-48c-7-8.9-22-30-30.9-57.3c-12-36.5-8.7-70.4-8.7-70.4
		s22.7,25.3,34.7,61.9c7.3,22.2,8.9,43.4,9.1,56.7c5.2-11.2,10.7-22.3,16.4-33.3c2.2-13.1,7-33.8,17.6-54.7
		c17.4-34.3,43.7-55.9,43.7-55.9s-1.9,34-19.2,68.3c-10.5,20.7-24.2,36.7-33.4,46.2c-6,11.4-11.6,22.9-17,34.5
		c11.1-5.8,32.8-15.5,58.9-19.4c38-5.7,70.9,3.2,70.9,3.2s-28.8,18.2-66.8,23.9c-28.9,4.3-54.8,0.2-65.6-2
		c-7.3,16-13.9,32.1-20.1,48.1c11.3-2.3,36.5-6.2,64.5-2.1c38.1,5.5,66.9,23.6,66.9,23.6s-32.8,9.1-70.9,3.5
		c-28.9-4.2-52.5-15.6-62.2-20.9c-9.2,24.3-17.1,48.4-23.9,71.8c11.2-3.3,35.8-9.3,63.8-7.7c38.4,2.1,68.8,17.6,68.8,17.6
		s-31.9,11.9-70.3,9.8c-28.9-1.6-53.3-10.8-63.5-15.2c-6.6,23.1-12.2,45.4-16.8,66.5c11.3-3.8,35.4-10.4,63.1-9.9
		c38.5,0.8,69.4,15.1,69.4,15.1s-31.4,13.1-69.9,12.3c-28.6-0.6-53-8.6-63.6-12.7c-5.4,24.9-9.5,48.1-12.7,68.8
		c-0.2,1-0.3,2.1-0.5,3.1c7.5-1.8,36.3-7.8,69-3.1c38.1,5.5,66.9,23.6,66.9,23.6s-32.8,9.1-70.9,3.6c-32.7-4.8-58.6-18.7-65.3-22.6
		c-12.7,84.7-12.2,144.2-12.2,144.8l-9.4,0.1c0-0.6-0.5-59.5,11.9-143.4c-11.5,1.7-36.8,4-64.5-1.6c-37.7-7.7-65.5-27.4-65.5-27.4
		S2551,1367.2,2588.7,1374.9z"/>
	<path class="st2" d="M2867.9,1403.2c16.8,11,28.3,24.9,33.4,31.6c0.3-0.5,0.6-1,0.9-1.5c7.7-13,16.7-27.6,27.1-42.9
		c-7-3.6-23.2-13.1-37.3-28.6c-18.5-20.4-26.2-43.6-26.2-43.6s22.3,10,40.8,30.4c13.6,15,21.4,31.5,24.5,39.2
		c8.6-12.7,18.2-26,28.6-39.4c-5.9-5.5-19-18.7-28.5-37c-12.7-24.5-14.2-48.8-14.2-48.8s19,15.3,31.6,39.8
		c8.8,17.1,12.3,34.1,13.5,42.8c10.5-13.4,21.8-27,34-40.4c-5-6.3-15.9-21.3-22.5-41c-8.8-26.1-6.6-50.4-6.6-50.4s16.4,18,25.2,44.1
		c6,18,6.9,35.1,6.8,44c8.3-9,16.9-17.9,26-26.6c-2.3-7.8-6.6-25.8-5.3-46.3c1.7-27.5,12.9-49.2,12.9-49.2s8.4,22.9,6.6,50.4
		c-1.1,16.7-5.6,31.2-9,40.1c6.4-6,13-12,19.8-17.8c4.9-8.1,13.6-20.6,26.2-31.7c20.7-18.2,43.9-25.6,43.9-25.6s-10.3,22.1-31,40.3
		c-12.5,11-25.8,18-34.5,21.9c-7,6-13.8,12.1-20.5,18.4c8.9-0.9,26-1.6,44.3,2.7c26.8,6.3,46.3,21,46.3,21s-24,4.4-50.8-1.9
		c-20.4-4.8-36.5-14.4-43.1-18.8c-9.1,8.7-17.8,17.7-26.2,26.7c8.1,1.5,25.9,5.6,43.5,15.8c23.8,13.8,38.3,33.5,38.3,33.5
		s-24.2-2.7-48.1-16.5c-18.1-10.5-30.8-24.4-35.8-30.4c-12.6,13.7-24.2,27.6-35,41.4c8.4,0.8,26.2,3.4,44.5,11.8
		c25,11.6,41.1,30,41.1,30s-24.4-0.5-49.4-12.2c-18.8-8.8-32.6-21.3-38.2-27c-10.5,13.6-20.2,27-28.9,39.8
		c8.5,0.5,26.3,2.5,44.6,10.2c25.4,10.7,42.1,28.5,42.1,28.5s-24.4,0.3-49.8-10.4c-18.9-8-33-19.8-38.9-25.4
		c-10.2,15.2-19.1,29.5-26.7,42.4c-0.4,0.6-0.8,1.3-1.1,1.9c5.5,0.8,26.2,4.5,46.7,16.3c23.8,13.8,38.3,33.5,38.3,33.5
		s-24.2-2.7-48.1-16.5c-20.5-11.9-34-28-37.4-32.4c-30.9,53-46.5,92.7-46.6,93.1l-6.3-2.4c0.2-0.4,15.5-39.7,46-92.2
		c-8.1-2-25.5-7.1-42.4-18.2c-23-15.1-36.3-35.6-36.3-35.6S2844.9,1388.1,2867.9,1403.2z"/>
	<g>
		<path class="st2" d="M3007.8,1526c50.1,0,92.3,33.6,105.4,79.4h-210.7C2915.5,1559.5,2957.7,1526,3007.8,1526z"/>
		<path class="st2" d="M2494.2,1488.4c73.7,0,135.9,49.5,155.2,117H2339C2358.3,1537.8,2420.5,1488.4,2494.2,1488.4z"/>
		<path class="st2" d="M2975.9,1605.4c-23.8-82.4-118.1-143.9-230.8-143.9c-112.7,0-207,61.5-230.8,143.9H2975.9z"/>
	</g>
	<g>
		<path class="st2" d="M2600,831.1c-30.1,0-55.4,20.2-63.3,47.7h126.5C2655.4,851.3,2630.1,831.1,2600,831.1z"/>
		<path class="st2" d="M2908.4,808.6c-44.3,0-81.6,29.7-93.2,70.3h186.4C2990,838.3,2952.7,808.6,2908.4,808.6z"/>
		<path class="st2" d="M2619.1,878.8c14.3-49.5,70.9-86.4,138.6-86.4c67.7,0,124.3,36.9,138.6,86.4H2619.1z"/>
	</g>
	<g>
		<path class="st2" d="M956,1160.4c-10.6,22.1-35.3,32.3-35.3,32.3s-7.3-25.6,3.3-47.7c10.6-22.1,35.3-32.3,35.3-32.3
			S966.7,1138.3,956,1160.4z"/>
		<path class="st2" d="M1002.1,1260.9c-14.2,20-40.1,26-40.1,26s-3-26.5,11.2-46.5s40.1-26,40.1-26S1016.3,1240.9,1002.1,1260.9z"/>
		<path class="st2" d="M861.8,1088.3c16.1,18.5,15.8,45.1,15.8,45.1s-26.4-3.4-42.5-21.9c-16.1-18.5-15.8-45.1-15.8-45.1
			S845.7,1069.8,861.8,1088.3z"/>
		<path class="st2" d="M878.5,1173.5c24.5,1.5,43.3,20.3,43.3,20.3s-20.9,16.5-45.4,15.1c-24.5-1.5-43.3-20.3-43.3-20.3
			S854,1172.1,878.5,1173.5z"/>
		<path class="st2" d="M918.5,1266c24.5,1.5,43.3,20.3,43.3,20.3s-20.9,16.5-45.4,15.1c-24.5-1.5-43.3-20.3-43.3-20.3
			S894.1,1264.6,918.5,1266z"/>
		<g>
			<path class="st2" d="M998.5,1482.3l-5,0c0-0.6,0.2-58.8-15.8-132.1c-9.3-43-22.3-82.7-38.6-118.1c-20.3-44.1-45.7-81.4-75.7-111
				l3.5-3.6c30.4,30,56.2,67.8,76.7,112.5c16.4,35.7,29.5,75.8,38.9,119.1C998.7,1423.1,998.5,1481.7,998.5,1482.3z"/>
		</g>
	</g>
	<g>
		<path class="st2" d="M788.1,1279c-1.3,19.8-16.8,34.9-16.8,34.9s-13.3-17-11.9-36.9s16.8-34.9,16.8-34.9S789.4,1259.1,788.1,1279z
			"/>
		<path class="st2" d="M853.1,1340.7c-4.6,19.3-22.3,31.7-22.3,31.7s-10.2-19-5.6-38.3c4.6-19.3,22.3-31.7,22.3-31.7
			S857.7,1321.4,853.1,1340.7z"/>
		<path class="st2" d="M695.4,1253.2c17.7,9.1,25.5,29.2,25.5,29.2s-20.9,5.5-38.6-3.6c-17.7-9.1-25.5-29.2-25.5-29.2
			S677.7,1244.2,695.4,1253.2z"/>
		<path class="st2" d="M733.7,1312.3c18.9-6.3,38.7,2.2,38.7,2.2s-10.7,18.7-29.6,25c-18.9,6.3-38.7-2.2-38.7-2.2
			S714.8,1318.6,733.7,1312.3z"/>
		<path class="st2" d="M791.8,1369.8c18.9-6.3,38.7,2.2,38.7,2.2s-10.7,18.7-29.6,25c-18.9,6.3-38.7-2.2-38.7-2.2
			S772.9,1376.1,791.8,1369.8z"/>
		<g>
			<path class="st2" d="M917.2,1508.3l-3.8,1.5c-0.2-0.4-17.6-44.3-51.7-94.6c-20-29.5-41.8-55.5-64.7-77.2
				c-28.6-27-59-47.4-90.4-60.6l1.6-3.7c31.9,13.4,62.8,34.1,91.7,61.5c23.1,21.9,45.1,48.1,65.3,77.9
				C899.5,1463.7,917,1507.9,917.2,1508.3z"/>
		</g>
	</g>
	<g>
		<path class="st2" d="M664.3,1508.5c-48,0-88.4,32.2-100.9,76.1h201.9C752.7,1540.6,712.3,1508.5,664.3,1508.5z"/>
		<path class="st2" d="M1156.3,1472.5c-70.6,0-130.2,47.4-148.7,112.1H1305C1286.5,1519.8,1226.9,1472.5,1156.3,1472.5z"/>
		<path class="st2" d="M694.9,1584.5c22.8-78.9,113.1-137.8,221.1-137.8s198.3,58.9,221.1,137.8H694.9z"/>
	</g>
	<g>
		<g>
			<path class="st4" d="M992.6,1565c19.4,0,35.8,13,40.9,30.8h-81.8C956.7,1578.1,973.1,1565,992.6,1565z"/>
			<path class="st4" d="M1040.5,1574.6c13.4,0,24.7,9,28.2,21.3h-56.5C1015.7,1583.6,1027.1,1574.6,1040.5,1574.6z"/>
			<path class="st4" d="M979.6,1595.9c-5.5-19-27.3-33.2-53.3-33.2c-26,0-47.8,14.2-53.3,33.2H979.6z"/>
		</g>
		<g>
			<path class="st4" d="M1029.4,1499.7c-2.8-0.9-5.8,0.6-6.7,3.4c-0.4,1.2-0.3,2.5,0.2,3.6c-4.4,4.4-8.5,9-12.3,13.8
				c0.7-4.9,1.4-12.3,0.7-19.6c1.3-0.6,2.4-1.7,2.9-3.2c0.9-2.8-0.6-5.8-3.4-6.7c-2.8-0.9-5.8,0.6-6.7,3.4c-0.9,2.8,0.6,5.8,3.4,6.7
				c0.3,0.1,0.6,0.2,1,0.2c1.1,10.9-1.3,22.4-1.7,24.1c-7.9,10.8-14.1,21.6-18.5,30.2c-7.9,15.5-11.8,27.3-11.8,27.4l2.7,0.9
				c0-0.1,3.9-11.8,11.7-27c2.3-4.6,5.2-9.8,8.6-15.3c2-0.5,9.5-2.1,19.7-0.9c0.1,2.1,1.5,4.1,3.7,4.8c2.8,0.9,5.8-0.6,6.7-3.4
				c0.9-2.8-0.6-5.8-3.4-6.7c-2.4-0.8-5.1,0.3-6.2,2.5c-8.1-1-14.5-0.3-18.3,0.3c6.2-9.7,13.9-20.1,23.1-29.3
				c0.4,0.3,0.9,0.6,1.5,0.8c2.8,0.9,5.8-0.6,6.7-3.4C1033.7,1503.6,1032.2,1500.6,1029.4,1499.7z"/>
			<path class="st4" d="M966.1,1538.9c1.7-1.2,8.2-5.3,18.1-7.8c0.8,2,2.8,3.3,5.1,3.2c2.9-0.1,5.2-2.6,5-5.5s-2.6-5.2-5.5-5
				c-2.6,0.1-4.6,2.1-5,4.5c-7.9,1.9-13.7,4.8-17,6.7c2.4-11.3,5.9-23.7,11.4-35.5c0.5,0.1,1.1,0.2,1.7,0.2c2.9-0.1,5.2-2.6,5-5.5
				c-0.1-2.9-2.6-5.2-5.5-5c-2.9,0.1-5.2,2.6-5,5.5c0.1,1.3,0.6,2.5,1.4,3.4c-2.6,5.7-4.8,11.4-6.6,17.2c-1.1-4.9-3-12-6.2-18.6
				c1-1,1.6-2.4,1.6-4c-0.1-2.9-2.6-5.2-5.5-5c-2.9,0.1-5.2,2.6-5,5.5c0.1,2.9,2.6,5.2,5.5,5c0.3,0,0.7-0.1,1-0.1
				c4.8,9.8,6.7,21.4,6.9,23.2c-3.6,12.9-5.6,25.2-6.7,34.8c-1.9,17.2-1.4,29.7-1.4,29.8l2.8-0.1c0-0.1-0.5-12.4,1.4-29.4
				C964,1551.1,964.9,1545.2,966.1,1538.9z"/>
		</g>
	</g>
	<g>
		<path class="st5" d="M2863.9,868.4c12.7,0,23.4,8.5,26.8,20.2h-53.5C2840.5,876.9,2851.2,868.4,2863.9,868.4z"/>
		<path class="st5" d="M2733.5,858.9c18.7,0,34.5,12.6,39.4,29.7h-78.8C2699,871.4,2714.8,858.9,2733.5,858.9z"/>
		<path class="st5" d="M2855.8,888.6c-6-20.9-30-36.5-58.6-36.5c-28.6,0-52.6,15.6-58.6,36.5H2855.8z"/>
	</g>
	<g>
		<path class="st6" d="M878.2,1673.2c11.8,0,21.7,7.9,24.8,18.7h-49.6C856.5,1681.1,866.5,1673.2,878.2,1673.2z"/>
		<path class="st6" d="M757.3,1664.3c17.4,0,32,11.6,36.5,27.6h-73.1C725.3,1675.9,740,1664.3,757.3,1664.3z"/>
		<path class="st6" d="M870.7,1691.9c-5.6-19.4-27.8-33.9-54.4-33.9s-48.8,14.5-54.4,33.9H870.7z"/>
	</g>
	<g>
		<g>
			<polygon class="st2" points="1937.1,1588.7 2137.4,1588.7 1969.8,840.5 1769.5,840.5 			"/>
		</g>
		
			<rect x="1523.3" y="1551.3" transform="matrix(-1 -1.224647e-16 1.224647e-16 -1 3820.1609 3154.5615)" class="st2" width="773.5" height="52"/>
		<polygon class="st2" points="1137.6,562.9 1137.6,1133.8 1137.6,1322.9 2439.2,1322.9 2439.2,628.7 2439.2,562.9 		"/>
	</g>
	
		<rect x="1450.8" y="339.8" transform="matrix(-1.836970e-16 1 -1 -1.836970e-16 2723.4204 -841.5753)" class="st7" width="663.3" height="1202.2"/>
	
		<rect x="1763.4" y="27.3" transform="matrix(-1.836970e-16 1 -1 -1.836970e-16 2410.8655 -1154.13)" class="st6" width="38.2" height="1202.2"/>
	<g>
		<circle class="st3" cx="1206.3" cy="629" r="9.3"/>
		<circle class="st3" cx="1236.7" cy="629" r="9.3"/>
		<circle class="st3" cx="1267" cy="629" r="9.3"/>
	</g>
	<g>
		<path class="st8" d="M2576.1,1585.7c-19.8,0-36.5,13.3-41.7,31.4h83.3C2612.6,1599,2595.9,1585.7,2576.1,1585.7z"/>
		<path class="st8" d="M2779.1,1570.8c-29.2,0-53.7,19.6-61.4,46.3h122.7C2832.9,1590.4,2808.3,1570.8,2779.1,1570.8z"/>
		<path class="st8" d="M2588.7,1617.1c9.4-32.6,46.7-56.9,91.3-56.9s81.9,24.3,91.3,56.9H2588.7z"/>
	</g>
	<g>
		<path class="st9" d="M1226,731.9c17.9,0,32.9,12,37.6,28.3h-75.2C1193.1,743.9,1208.1,731.9,1226,731.9z"/>
		<path class="st9" d="M1042.7,718.5c26.3,0,48.5,17.7,55.4,41.8H987.3C994.2,736.1,1016.4,718.5,1042.7,718.5z"/>
		<path class="st9" d="M1214.6,760.2c-8.5-29.4-42.2-51.3-82.4-51.3c-40.2,0-73.9,22-82.4,51.3H1214.6z"/>
	</g>
	<g>
		<rect x="1419.4" y="725.8" class="st10" width="726.2" height="468.8"/>
		<polygon class="st11" points="1782.5,899.9 2145.6,1194.6 1419.4,1194.6 		"/>
		<polygon class="st12" points="1782.5,1020.5 1419.4,725.8 2145.6,725.8 		"/>
	</g>
	<g>
		
			<rect x="2332.9" y="439.2" transform="matrix(0.9916 -0.129 0.129 0.9916 -49.8436 327.39)" class="st10" width="338.2" height="218.3"/>
		<polygon class="st11" points="2498.3,520.5 2683.7,634.8 2348.4,678.5 		"/>
		<polygon class="st12" points="2505.6,576.3 2320.2,462 2655.6,418.3 		"/>
	</g>
	<g>
		
			<rect x="961.9" y="864.7" transform="matrix(0.9731 0.2304 -0.2304 0.9731 245.9522 -223.6377)" class="st10" width="237.1" height="153.1"/>
		<polygon class="st11" points="1085,922.1 1178.2,1043 947.5,988.4 		"/>
		<polygon class="st12" points="1075.9,960.4 982.7,839.4 1213.5,894.1 		"/>
	</g>
	<g>
		
			<rect x="1525.9" y="379.8" transform="matrix(0.9667 -0.2561 0.2561 0.9667 -58.6516 429.2835)" class="st10" width="186.2" height="120.2"/>
		<polygon class="st11" points="1615.1,424.9 1724.4,474.1 1544.4,521.8 		"/>
		<polygon class="st12" points="1623,454.8 1513.6,405.6 1693.6,357.9 		"/>
	</g>
	<path class="st6" d="M1435.2,1635.3h8.2l7.6-46.1h86.1l-7.6,46.1h8.2l99.7-607.2h-8.2l-5.1,31.1H1538l5.1-31.1h-8.2L1435.2,1635.3z
		 M1616.3,1106.6h-86.1l6.5-39.8h86.1L1616.3,1106.6z M1608.5,1154.1h-86.1l6.5-39.8h86.1L1608.5,1154.1z M1600.7,1201.6h-86.1
		l6.5-39.8h86.1L1600.7,1201.6z M1592.9,1249.1h-86.1l6.5-39.8h86.1L1592.9,1249.1z M1585.1,1296.6H1499l6.5-39.8h86.1
		L1585.1,1296.6z M1577.3,1344.1h-86.1l6.5-39.8h86.1L1577.3,1344.1z M1569.5,1391.5h-86.1l6.5-39.8h86.1L1569.5,1391.5z
		 M1561.7,1439h-86.1l6.5-39.8h86.1L1561.7,1439z M1553.9,1486.5h-86.1l6.5-39.8h86.1L1553.9,1486.5z M1546.1,1534H1460l6.5-39.8
		h86.1L1546.1,1534z M1452.2,1581.5l6.5-39.8h86.1l-6.5,39.8H1452.2z"/>
	<path class="st13" d="M1565.8,822.8c0,0,180-95.7,254.8-216.6c74.8-121,45.1-143.3,15.9-123.5c-81.8,55.5-206.3,293-63.2,266.5
		s302-332.4,302-332.4"/>
	<g>
		<defs>
			<rect id="SVGID_1_" x="1522.2" y="647.5" width="533" height="206.3"/>
		</defs>
		<clipPath id="SVGID_2_">
			<use xlink:href="#SVGID_1_"  style="overflow:visible;"/>
		</clipPath>
		<path class="st14" d="M1565.8,822.8c0,0,180-95.7,254.8-216.6c74.8-121,45.1-143.3,15.9-123.5c-81.8,55.5-206.3,293-63.2,266.5
			s302-332.4,302-332.4"/>
	</g>
	<circle class="st15" cx="2099.8" cy="768.8" r="94.1"/>
	<g>
		<rect x="2189.5" y="1078.5" class="st8" width="137.3" height="81.8"/>
		<polygon class="st8" points="2258.2,1201.5 2264.4,1126.5 2251.9,1126.5 		"/>
		<path class="st16" d="M2278.4,1097.8c-10.8,0-20.3,12.9-20.3,12.9s-9.5-12.9-20.3-12.9c-6.9,0-16.5,3.9-16.6,16.5
			c-0.1,13,17.9,15.7,25.6,16.3c7.7,0.5,11.3,10.4,11.3,10.4s3.6-9.8,11.3-10.4c7.7-0.5,25.7-3.3,25.6-16.3
			C2294.9,1101.7,2285.4,1097.8,2278.4,1097.8z"/>
	</g>
	<g>
		<path class="st12" d="M2163.2,764.5c0,24.2-10.9,38-27.2,38c-9,0-15.4-4.1-18.2-11.8c-4.6,7.6-12.2,11.8-22.7,11.8
			c-17.1,0-30.6-13.8-30.6-34.2c0-20.3,13.4-34.1,30.6-34.1c8.8,0,15.7,3.1,20.4,8.9v-8h18V779c0,6.5,2.8,8.7,6.4,8.7
			c6.1,0,9.8-7.2,9.8-22.9c0-27.5-19.9-46.4-49.4-46.4c-29.6,0-49.4,20.6-49.4,48.8c0,28.8,19.4,49.2,48.8,49.2
			c8.4,0,17.8-1.8,26.1-6l4.2,12.4c-8.1,4.2-19.9,6.5-30.4,6.5c-38.3,0-63.7-26.5-63.7-62.2c0-35.3,25.6-61.7,64.2-61.7
			C2137.8,705.6,2163.2,730.6,2163.2,764.5z M2115.9,768.3c0-11.8-7-18.4-16.6-18.4c-9.7,0-16.5,6.9-16.5,18.4
			c0,11.6,6.8,18.7,16.5,18.7C2108.8,787,2115.9,780.2,2115.9,768.3z"/>
	</g>
	<g>
		
			<rect x="2244.7" y="644.1" transform="matrix(0.9469 -0.3216 0.3216 0.9469 -111.2871 809.8754)" class="st10" width="302.6" height="195.4"/>
		<polygon class="st11" points="2387.9,718 2570.7,785.7 2284.1,883 		"/>
		<polygon class="st12" points="2404.1,765.6 2221.3,698 2507.9,600.7 		"/>
	</g>
	<g>
		<path class="st17" d="M1711.4,1475.8c-1.5-5.7-4-8.9-8.8-9.9c-5.3-1.1-10.5,2.5-11.4,7.8l-25,149.5c-0.4,2.4,1.2,4.6,3.5,5.1
			c2.3,0.5,4.6-1,5.2-3.3l1.5-6.4C1705.3,1518.7,1715.3,1496.2,1711.4,1475.8z"/>
		<path class="st18" d="M1737.6,1340.3c-2.4-18-11.6-21.7-18.1-22c-0.4-0.1-0.9-0.2-1.3-0.3c-5.4-0.8-10.3,3-11,8.4L1690,1477
			c-0.3,2.4,1.4,4.5,3.8,4.9c0.8,0.1,1.6,0,2.3-0.3c5.5-1,10.1-5,11.8-10.5C1716.8,1442.7,1740.7,1363.7,1737.6,1340.3z"/>
		<path class="st17" d="M1772,1473.7c-4.1-4.2-7.8-5.9-12.5-4.3c-5.2,1.7-8,7.3-6.1,12.4l51.1,142.7c0.8,2.3,3.3,3.5,5.5,2.7
			c2.3-0.7,3.6-3.1,2.9-5.4l-1.8-6.3C1787.6,1514.2,1785.5,1489.6,1772,1473.7z"/>
		<path class="st18" d="M1762,1336c-7.2-16.7-17-17.8-23.4-16.3c-0.4,0-0.9,0-1.4,0.1c-5.4,0.7-9.1,5.7-8.3,11.1l24.3,149.7
			c0.4,2.4,2.6,4,4.9,3.7c0.8-0.1,1.5-0.4,2.1-0.9c5-2.5,8.4-7.6,8.5-13.3C1769.8,1440.2,1771.3,1357.7,1762,1336z"/>
		<path class="st2" d="M1807.2,1623.9c-3.3,0-6.1-0.5-7.8-1.2c-11.4,1.6-34.5,6.9-33.8,12.6c0.3,2.1,45.4,0.7,48.6,0.4
			c2.2-0.3,1.3-6.8,0.6-10.6c-0.2-1.1-1.3-1.8-2.3-1.6C1810.9,1623.7,1809.2,1623.9,1807.2,1623.9z"/>
		<path class="st2" d="M1670,1623.9c-3.3,0-6.1-0.5-7.8-1.2c-11.4,1.6-34.5,6.9-33.8,12.6c0.3,2.1,45.4,0.7,48.6,0.4
			c2.2-0.3,1.3-6.8,0.6-10.6c-0.2-1.1-1.3-1.8-2.3-1.6C1673.7,1623.7,1671.9,1623.9,1670,1623.9z"/>
		<path class="st8" d="M1748.8,1312.5c0,0-9.9,74.5-36.8,156.2c0,0,13.5,31.4-29.6,133.7h-16.2c0,0,22.4-130.1,23.3-140.9
			c0.9-10.8,15.3-147.2,17.9-154.4L1748.8,1312.5z"/>
		<path class="st8" d="M1764,1310.7c0,0,9.9,49.4,8.1,158c0,0,24.2,26,38.6,132.8l-17.1,0.9c0,0-44-120.3-44.9-125.6
			c-0.9-5.4-29.6-169.6-29.6-169.6L1764,1310.7z"/>
		<path class="st15" d="M1746.2,1182c11-6.2,4.5-14.9,4.5-15.2c-0.9-3.7-7.9-6.1-12.3-4.7l-96.5,37.1c-1.6,0.4-3.9,6.8-3.5,8.4
			c0.1,0.5,0.4,1,0.8,1.4c2.1,3.3,10,1.8,13.9,1.1C1672.4,1206.7,1731.9,1190.1,1746.2,1182z"/>
		<g>
			<path class="st15" d="M1769.3,1295c0.3-3.8,0.5-7.7,0.7-11.5c0.1-2.5,0.3-5.1,0.4-7.6c0.3-5.6,0.6-11.3,0.8-16.8
				c0.1-2.6,0.2-5.3,0.3-7.8c0.2-6,0.4-12.6,0.5-18.3c0-2.5,0.2-5.1,0.2-6.8c-0.2-10.8,0-21.5-0.9-31.7c-0.5-6,0.1-8.7-1.9-14.8
				c-6-18.1-21.2-24.7-38.2-13.8c-0.9,0.6-2.4,1.7-3,2.4c-6.5,7.3-11.7,11.5-10.8,23c1,12.6-2.1,30.3-4.2,44.1
				c-0.1,0.8-0.4,4.1-0.7,5.9c-0.3,2.6-0.7,5.9-1.1,9.1c-0.5,4.4-1.1,9.4-1.6,14.1c-0.3,2.8-0.7,6.1-1,9.1
				c-0.6,5.3-1.2,10.9-1.9,16.3c-0.2,1.5-0.4,3.1-0.6,4.6c-0.2,1.2-0.3,2.3-0.5,3.4c-0.4,2.7-0.8,5.6-1.2,8.3
				c-0.4,2.3-0.8,4.5-1.3,6.7c-0.6,3.1-1.2,6.1-1.9,9.1c6.7,1.3,13.6,1.3,20.3,0.1c11.3-2,22.1-5.4,33.6-4.9c3.9,0.2,7.4,1.3,11.1,2
				c0.9-5.8,1.5-11.6,2.1-17.5C1769,1299.7,1769.1,1297.3,1769.3,1295z"/>
		</g>
		<g>
			
				<rect x="1704.6" y="1278.8" transform="matrix(0.9667 -0.2561 0.2561 0.9667 -280.4148 499.7445)" class="st10" width="148.1" height="95.6"/>
			<polygon class="st11" points="1775.5,1314.7 1862.5,1353.8 1719.3,1391.8 			"/>
			<polygon class="st12" points="1781.8,1338.5 1694.9,1299.4 1838,1261.4 			"/>
		</g>
		<g>
			<path class="st2" d="M1715.5,1150.6c0,0-0.4-7.2,4.2-12s4.7,2.4,4.7,2.4L1715.5,1150.6z"/>
			<path class="st2" d="M1759.7,1148.9c-0.5,0.5-8.6,10.7-10.7,10.3c-2.8-0.6,0.9-9.3,0.9-9.3L1759.7,1148.9z"/>
			<path class="st2" d="M1728.4,1122.7c0,0-1-6.7,2.6-10.2c3.4-3.3,8.5-6.3,22.8,1.5c2,1.1,3,3.5,2.3,5.7l-2,6.3L1728.4,1122.7z"/>
			<path class="st17" d="M1753.7,1143.1c-4.2,8.6-8.4,15.5-15.4,17.5c-2.4,0.7-5.3,1.1-8.4,0.5c-1.9-0.3-4-1-6-2.2
				c-5.3-3-7.2-6.9-7-11.6c0.2-5.4,3.2-11.7,6.8-19c6.7-13.6,16.8-17.2,25-13.1C1757,1119.4,1760.3,1129.6,1753.7,1143.1z"/>
			<path class="st17" d="M1756.1,1140.9l-15.7-2.5c-0.3,2.1-3.2,22.6-2.8,30.4c0.4,2.4,4.3,3.7,8.6,3c3.9-0.7,6.8-2.9,7-5.1l0,0
				C1753,1162.1,1754.9,1148.4,1756.1,1140.9z"/>
			<path class="st2" d="M1759,1149.7c0,0-4.2-0.1-6.2-4.5c-2.7-5.7-3.4-16.4-3-21c0.8-8.1,3.6-9.4,3.6-9.4s14.1,5.9,15.6,11.7
				C1771.3,1135.3,1759,1149.7,1759,1149.7z"/>
			<path class="st2" d="M1752,1134.2l-9.7,19.8c-1,2.1-3.2,3.4-5.5,3.2l-2.7-0.1c-1.6-0.1-2.8-1.7-2.4-3.2l1.1-4.4
				c0.2-1-0.2-2-1-2.5l-8.6-5.1c-0.9-0.5-2.1-0.4-2.8,0.4l-3,3.3c-3,3.2-2.4,8.3,1.3,10.8l5,3.4c1.1,0.7,2.3,1.2,3.6,1.3
				c0.1,0,0.2,0,0.3,0l0.2,0c0,0,0,0,0,0l2.1,0.1v0l6.7,0.4c4.1,0.2,7.9-2,9.8-5.7l9.7-19.8L1752,1134.2z"/>
			<path class="st17" d="M1759.6,1146.5c-1.4,2.9-6.2,5.3-8.3,4.3c-2.1-1-1.5-3.7-0.1-6.6c1.4-2.9,4.5-4.9,6.6-3.8
				S1761,1143.5,1759.6,1146.5z"/>
			<path class="st2" d="M1752.2,1121.6l-8.8-4.2c-2.9-1.4-6.3-1.7-9.4-0.9l-4.3,1.2l8-6.2l8.3,0.7l8.6,5L1752.2,1121.6z"/>
		</g>
		<path class="st15" d="M1748.9,1184c-3.6-9.7,6.2-13.5,6.5-13.7c2.9-2.4,9.2-1.2,11.3,1.9l42.5,71.9c0.8,1.1-1.3,2.8-2.6,3.9
			c-0.4,0.4-0.9,0.6-1.4,0.7c-3.5,1.6-7.9,0.8-10.5-1.2C1781.5,1236.9,1753.6,1196.7,1748.9,1184z"/>
		<path class="st17" d="M1575.1,1179.4c-3.6,0.7-7.3-0.2-10-2.6c-7-6.1-19.9-18.1-19.9-23.8c0-7.9,25.4,8.2,31.9,26L1575.1,1179.4z"
			/>
		<g>
			<path class="st17" d="M1568,1179.2c18.4,11.3,62,29.7,75.5,32.1c11.2,1.9,12.2-4.9,12.3-5.2c1.5-3.1-1.1-9.1-4.9-10.7l-77.9-21.8
				L1568,1179.2z"/>
		</g>
		<g>
			<path class="st17" d="M1791.8,1320.8c-2.8-21.4-3.1-60.3,0.3-73.6c2.8-11,9.4-9.1,9.7-9.1c3.5-0.1,7.9,4.7,7.7,8.8l-11.3,75.5
				L1791.8,1320.8z"/>
		</g>
		<path class="st17" d="M1797.2,1319.6c-3.6-0.3-7.2,1.1-9.6,3.8c-6.3,6.9-17.7,20.3-17,26c1,7.8,24.2-11.1,28.7-29.6L1797.2,1319.6
			z"/>
	</g>
	<g>
		<polygon class="st12" points="2127.7,505.9 2165.3,245.4 2045.7,460.4 		"/>
		<polygon class="st12" points="2045.7,460.4 2165.3,245.4 1963.8,414.8 		"/>
		<g>
			<polygon class="st19" points="2068.4,473 2165.3,245.4 2035.1,479.4 			"/>
			<polygon class="st20" points="2035.6,478.6 2165.3,245.4 2023.1,447.7 			"/>
		</g>
	</g>
	<g>
		<path class="st21" d="M1309.3,1218.7c-22.4-21.5-34.1-11.7-34.3-11.5c-3,1.7-3,8.9-0.4,12.7l75.2,80.6c0.9,1.4,3,0.1,4.3-0.6
			c0.4-0.2,0.8-0.6,1-1c2.3-2.8,4.1-9.3,2.6-13C1350,1266.6,1321,1229.9,1309.3,1218.7z"/>
		<path class="st21" d="M1296.6,1204.4c0,0,25.1,30.2,25.7,41.7c0.6,11.5,22.6,91.5,22.6,91.5l-27,6L1296.6,1204.4z"/>
		<path class="st22" d="M1317,1624.4c0,0-3,10.3-1.2,10.9s44.2,2.4,47.2,0.6s-6.1-4.8-6.1-4.8s-20-5.4-31.5-6.7
			C1325.4,1624.4,1317,1623.8,1317,1624.4z"/>
		<path class="st23" d="M1296.6,1485.3c2.4-4.8,19.7-8,24.2-8c5,0,8.9,4.1,8.8,9.1l-4.7,138.3c-0.1,2.2-1.9,3.9-4,3.9s-4-1.7-4-3.9
			l-0.2-6C1299.8,1536.4,1289.3,1502.9,1296.6,1485.3z"/>
		<path class="st22" d="M1280.4,1361.8c3.4-16.2,28.6-18.5,34.5-18.3c0.4-0.1,0.8-0.2,1.2-0.2c5-0.3,9.2,3.5,9.4,8.4l4.8,138.3
			c0.1,2.2-1.6,4-3.8,4.2c-0.7,0.1-1.4-0.1-2-0.4c-4.9-1.3-25.3-5.7-26.5-10.8C1292,1456.5,1275.9,1382.9,1280.4,1361.8z"/>
		<path class="st24" d="M1342.2,1626.4c-4.4,1.9-11.7,3.2-19.9,3.2c-2.6,0-5.2-0.1-7.6-0.4c-0.5,3.7-0.8,8.1,1,8.3
			c3.2,0.4,49.3,1.8,49.5-0.4C1365.8,1632.9,1353.4,1628.9,1342.2,1626.4z"/>
		<path class="st22" d="M1255.1,1624.4c0,0-3,10.3-1.2,10.9s44.2,2.4,47.2,0.6s-6.1-4.8-6.1-4.8s-20-5.4-31.5-6.7
			C1263.6,1624.4,1255.1,1623.8,1255.1,1624.4z"/>
		<path class="st23" d="M1251.6,1484.3c3-4.5,20.5-5.6,25-5.1c4.9,0.6,8.4,5.1,7.6,10l-21.1,136.8c-0.3,2.2-2.3,3.7-4.5,3.4
			c-2.2-0.3-3.7-2.2-3.6-4.4l0.5-6C1248.7,1535.4,1242.3,1500.9,1251.6,1484.3z"/>
		<path class="st22" d="M1250.2,1359.8c5.3-15.7,30.6-15,36.5-14.1c0.4,0,0.8-0.1,1.2,0c5,0.3,8.7,4.6,8.3,9.5l-11.7,137.9
			c-0.2,2.2-2.1,3.8-4.2,3.7c-0.7,0-1.4-0.3-2-0.6c-4.8-1.9-24.4-8.7-25-13.9C1250.5,1455.2,1243.3,1380.2,1250.2,1359.8z"/>
		<path class="st24" d="M1280.4,1626.4c-4.4,1.9-11.7,3.2-19.9,3.2c-2.6,0-5.2-0.1-7.6-0.4c-0.5,3.7-0.8,8.1,1,8.3
			c3.2,0.4,49.3,1.8,49.5-0.4C1304,1632.9,1291.6,1628.9,1280.4,1626.4z"/>
		<path class="st15" d="M1249.6,1331l-15.6,176.6c0,0,46.5,5.9,112.3-5.1l-8.8-52.4c0,0-5.2-103.1-12.8-113.1
			C1317.1,1326.9,1249.6,1331,1249.6,1331z"/>
		<path class="st25" d="M1273.8,1195.6"/>
		<path class="st9" d="M1253.9,1317.5c-1.8-9.1-1.5-25.3-1.1-37.7c-1.7-23-4.2-52.8,14.9-71.2c1.4-1.3,2.8-2.6,4.2-3.7
			c8.5-6.4,13.4-8,24.8-0.6c3.5,2.3,8,10.1,11.4,18.4c1.7,2.8,3.3,5.6,4.8,8.3c3.1,5.8,5.1,7.9,6.1,14.5c1.5,10.1-4.3,16.5-5.6,29.1
			c-1.3,12.7,20.4,66.2,14.3,74.9c-0.9,1.3-2,2.2-3.3,2.9c-7.4,4-20.5-0.6-28.6,0c-9.6,0.7-24.1-3-33.6-6.7
			c-0.9-0.4-4.9-0.4-5.6-0.9C1250.3,1339.7,1255.8,1327,1253.9,1317.5z"/>
		<g>
			<path class="st23" d="M1364.4,1220.1c-2.7,9-7.8,23.3-12.3,37.1l18.9,9.7l2.6-45.5L1364.4,1220.1z"/>
			<path class="st21" d="M1343.9,1292.5c0.9,10.2,17.1,10.1,17.3,10.1c3.1,0.6,7.7-3,8.1-6.7l1.7-29.1l-18.9-9.7
				C1347.4,1272,1343.3,1286.2,1343.9,1292.5z"/>
		</g>
		<path class="st21" d="M1278.7,1198.6c0,0-4.9,2.9-3.8,6.1c1.2,3.2,5.5,13.3,21.3,19.1c0,0,0.9,35.2,3.4,72.6
			c2.5,37.4,6.4,72.4,6.4,72.4l-57.2-10.1c0,0,1.6-96.2,2.5-108.9C1252.9,1228.7,1260.9,1206.7,1278.7,1198.6z"/>
		<path class="st2" d="M1296.8,1182.8c0,0-5.8,10.3-24.6,9.6c-18.8-0.7-22.3-23.3-18.8-29.8c3.5-6.5-2.9-23.1,24.9-21
			C1282.5,1142,1317.6,1149.8,1296.8,1182.8z"/>
		<path class="st2" d="M1294.1,1144.1c-5.2-0.7-11.6,1-14.6,5.6c-3,4.6-1.2,6.8,3.2,9.6c4.4,2.8,16.4,4.5,20.4,0.7
			C1308.9,1154.3,1302.2,1145.2,1294.1,1144.1z"/>
		<path class="st23" d="M1274.9,1178.2l15.1-2.5c0.3,2.2,4.8,23.6,4.5,31.6c-0.4,2.4-5.7,2.2-9.2,2.2c-5.5-0.1-8.2-5-8.2-5
			C1277.2,1199.7,1275.8,1185.8,1274.9,1178.2z"/>
		<path class="st23" d="M1274.2,1177.6c4.8,13.6,18.2,21.2,26.5,18.3c8.3-2.9,11-16.7,6.2-30.3c-4.8-13.6-16.6-16.7-24.9-13.8
			S1269.3,1164,1274.2,1177.6z"/>
		<path class="st2" d="M1259.7,1161.8c0.3-2.2,1.3-4.2,2.6-6c4-5.8,10.9-9.3,17.9-9.5c3.2-0.1,5.7,0,6.6,3.3
			c0.9,3.3,0.1,7.1-2.7,9.2c-2.3,1.8-5.6,2.3-7.4,4.5c-1.5,1.8-1.8,4.4-1.7,6.7c0.1,2.4,0.3,4.8-0.3,7c-0.7,2.3-2.7,4.4-5,4.2
			c-1.7-0.1-3.1-1.3-4.2-2.6c-2.3-2.7-3.6-6-4.6-9.4C1260,1167,1259.4,1164.4,1259.7,1161.8z"/>
		<path class="st23" d="M1267.2,1183.1c1,3.4,5.6,6.9,8.1,6.2c2.5-0.7,2.3-3.7,1.3-7.1c-1-3.4-3.9-6.1-6.4-5.4
			C1267.8,1177.5,1266.2,1179.7,1267.2,1183.1z"/>
		<path class="st2" d="M1265.1,1145.7c0,0,2.2-10.1-9.4-14.6c-11.6-4.5-28.3,8.6-24.1,22.3c4.2,13.7,24.1,21.2,31,13
			C1269.6,1158.1,1265.1,1145.7,1265.1,1145.7z"/>
		<path class="st21" d="M1276.5,1249.4c15.9-20.1-1.8-33.1-3.6-34.5c-2.8-2.2-6.6-1.2-9.9,0.5c-2.7,1.4-5.1,3.4-7.1,5.8l-60.7,71.2
			c-1.2,0.9,0.3,2.9,1.2,4.1c0.3,0.4,0.7,0.7,1.1,0.9c2.9,2,10.3,3.3,13.5,1.7C1227.8,1290.7,1267.3,1261.1,1276.5,1249.4z"/>
		<g>
			<path class="st23" d="M1245.2,1354.9l8.5-4.7c-4.8-8.8-12.1-24.1-19.3-38l-13.7,14.4L1245.2,1354.9z"/>
			<path class="st21" d="M1196.7,1288.7c-2.6,1.8-3.2,7.6-0.9,10.5l24.8,27.3l13.7-14.4c-6.8-13.1-13.6-24.9-18.2-28.7
				C1208.2,1277,1197,1288.6,1196.7,1288.7z"/>
		</g>
		<path class="st23" d="M1242.4,1348.4c0.2,3.5,2,6.6,4.9,8.6c7.4,5,21.6,13.8,26.9,12.4c7.3-2-13.9-21.3-31.9-22.9L1242.4,1348.4z"
			/>
		<path class="st23" d="M1364.2,1226.6c-1.1-3.3-0.6-6.9,1.3-9.8c5-7.4,14.8-21,20.3-21.6c7.5-0.9-4.8,25-20.9,33.2L1364.2,1226.6z"
			/>
	</g>
	<g>
		<circle class="st2" cx="1398.2" cy="993.4" r="97.6"/>
		<polyline class="st26" points="1351.3,984.3 1395.3,1028.4 1498.9,924.8 		"/>
		<path class="st2" d="M1377.6,1071.8c0,0-2.5,38.5-55.8,49.2c0,0,38.5-16,38.4-51.5L1377.6,1071.8z"/>
	</g>
	<path class="st12" d="M1306.2,768.5c16.5,0,29.9-13.4,29.9-29.9c0,16.5,13.4,29.9,29.9,29.9c-16.5,0-29.9,13.4-29.9,29.9
		C1336.1,781.9,1322.7,768.5,1306.2,768.5z"/>
	<path class="st12" d="M2266.9,996.6c16.5,0,29.9-13.4,29.9-29.9c0,16.5,13.4,29.9,29.9,29.9c-16.5,0-29.9,13.4-29.9,29.9
		C2296.8,1010,2283.4,996.6,2266.9,996.6z"/>
	<path class="st12" d="M1249.9,859.9c9.2,0,16.6-7.4,16.6-16.6c0,9.2,7.4,16.6,16.6,16.6c-9.2,0-16.6,7.4-16.6,16.6
		C1266.6,867.4,1259.1,859.9,1249.9,859.9z"/>
	<path class="st12" d="M2006.4,1155.6c9.2,0,16.6-7.4,16.6-16.6c0,9.2,7.4,16.6,16.6,16.6c-9.2,0-16.6,7.4-16.6,16.6
		C2023.1,1163.1,2015.6,1155.6,2006.4,1155.6z"/>
	<path class="st7" d="M1822.2,840.5c16.5,0,29.9-13.4,29.9-29.9c0,16.5,13.4,29.9,29.9,29.9c-16.5,0-29.9,13.4-29.9,29.9
		C1852.1,853.9,1838.7,840.5,1822.2,840.5z"/>
</g>
</svg>
