<svg width="508" height="508" viewBox="0 0 508 508" fill="none" xmlns="http://www.w3.org/2000/svg">
<path d="M49.125 196.487H61.4062L80.2375 221.59C83.8236 226.38 89.5385 229.237 95.5236 229.237C106.053 229.237 114.625 220.665 114.625 210.136V196.487H171.938H180.125H224.19L235.284 218.667C238.543 225.193 245.085 229.237 252.371 229.237H255.253C262.549 229.237 269.082 225.193 272.341 218.676L283.435 196.487H319.312H335.688H384.812V210.136C384.812 220.665 393.385 229.237 403.914 229.237H404.847C409.956 229.237 414.754 227.248 418.357 223.637L445.515 196.487H458.5C472.042 196.487 483.062 185.467 483.062 171.925V57.2999C483.062 43.7578 472.042 32.7374 458.5 32.7374H417.562V49.1124C417.562 58.1432 410.218 65.4874 401.188 65.4874C392.157 65.4874 384.812 58.1432 384.812 49.1124V32.7374H335.688H319.312H286.538C285.867 15.167 272.496 0.912596 255.556 0.0283455C246.468 -0.331905 237.847 2.7466 231.264 8.98547C224.78 15.1425 221.062 23.7967 221.062 32.7374H180.125H171.938H139.163C138.492 15.167 125.121 0.912596 108.181 0.0283455C99.0769 -0.331905 90.4801 2.7466 83.8891 8.98547C77.4046 15.1425 73.6875 23.7967 73.6875 32.7374H49.125C35.5829 32.7374 24.5625 43.7578 24.5625 57.2999V98.2374H39.5456C48.8876 98.2374 56.8376 105.189 57.2879 113.72C57.5254 118.28 55.937 122.595 52.8094 125.887C49.6817 129.17 45.4734 130.987 40.9375 130.987H24.5625V171.925C24.5625 185.467 35.5829 196.487 49.125 196.487ZM335.688 98.2374V49.1124H368.438C368.438 67.174 383.126 81.8624 401.188 81.8624C419.249 81.8624 433.938 67.174 433.938 49.1124H458.5C463.019 49.1124 466.688 52.7804 466.688 57.2999V171.925C466.688 176.444 463.019 180.112 458.5 180.112H438.735L406.788 212.06C406.264 212.576 405.576 212.862 404.847 212.862H403.914C402.407 212.862 401.188 211.642 401.188 210.136V180.112H335.688V130.987H319.312C316.283 130.987 313.483 130.103 311.043 128.662C310.74 128.482 310.413 128.351 310.118 128.146C309.668 127.843 309.283 127.459 308.865 127.115C308.448 126.763 308.006 126.443 307.621 126.042C307.252 125.666 306.941 125.232 306.614 124.822C306.27 124.396 305.91 123.979 305.607 123.52C305.287 123.037 305.042 122.513 304.78 121.998C304.559 121.555 304.313 121.121 304.125 120.663C303.912 120.131 303.764 119.566 303.609 119.001C303.47 118.501 303.314 118.01 303.224 117.503C303.126 116.954 303.093 116.389 303.052 115.832C303.011 115.276 302.962 114.727 302.97 114.162C302.987 113.646 303.06 113.155 303.126 112.656C303.208 112.017 303.273 111.37 303.437 110.756C303.47 110.609 303.527 110.47 303.568 110.33C305.639 103.42 312.64 98.2374 320.704 98.2374H335.688ZM188.312 49.1124H237.438V32.7374C237.438 28.2015 239.255 23.9932 242.538 20.8655C245.821 17.7379 250.046 16.125 254.697 16.387C263.236 16.8373 270.188 24.7873 270.188 34.1293V49.1124H319.312V81.8624C306.229 81.8624 294.996 89.6242 289.756 100.743C289.706 100.849 289.641 100.939 289.592 101.046C289.035 102.257 288.634 103.527 288.225 104.812C287.954 105.647 287.651 106.458 287.447 107.317C287.234 108.259 287.136 109.241 287.005 110.216C286.882 111.108 286.644 111.96 286.603 112.877C286.587 113.188 286.653 113.483 286.644 113.794C286.636 114.064 286.562 114.326 286.562 114.612C286.562 115.415 286.743 116.16 286.8 116.946C286.882 118.133 286.947 119.312 287.16 120.466C287.34 121.441 287.627 122.366 287.889 123.308C288.208 124.47 288.511 125.633 288.961 126.754C289.322 127.647 289.788 128.466 290.222 129.325C290.763 130.39 291.262 131.454 291.925 132.453C292.515 133.354 293.219 134.148 293.882 134.983C294.455 135.703 294.922 136.481 295.569 137.161C295.683 137.284 295.831 137.365 295.945 137.488C296.805 138.364 297.779 139.101 298.729 139.879C299.441 140.452 300.08 141.107 300.833 141.615C302.356 142.663 304.002 143.531 305.688 144.308C305.942 144.423 306.172 144.595 306.425 144.71C310.38 146.404 314.736 147.362 319.312 147.362V180.112H273.315L257.693 211.356C257.227 212.289 256.293 212.862 255.253 212.862H252.371C251.332 212.862 250.398 212.289 249.932 211.348L234.31 180.112H188.312V147.362C197.253 147.362 205.907 143.645 212.064 137.161C218.311 130.578 221.488 121.957 221.022 112.86C220.137 95.9285 205.883 82.5583 188.312 81.887V49.1124ZM40.9375 147.362C49.8783 147.362 58.5324 143.645 64.6894 137.161C70.9365 130.578 74.1132 121.957 73.6466 112.86C72.7623 95.9285 58.5079 82.5583 40.9375 81.887V57.2999C40.9375 52.7804 44.6055 49.1124 49.125 49.1124H90.0625V32.7374C90.0625 28.2015 91.8801 23.9932 95.1633 20.8655C98.4465 17.7379 102.671 16.125 107.322 16.387C115.861 16.8373 122.812 24.7873 122.812 34.1293V49.1124H171.938V98.2374H186.921C196.263 98.2374 204.213 105.189 204.663 113.72C204.9 118.28 203.312 122.595 200.184 125.887C197.057 129.17 192.848 130.987 188.312 130.987H171.938V180.112H98.25V210.136C98.25 212.502 94.7376 213.648 93.3293 211.773L69.5938 180.112H49.125C44.6055 180.112 40.9375 176.444 40.9375 171.925V147.362Z" fill="white"/>
<path d="M491.25 491.237V467.256C491.25 432.083 466.319 401.56 432.406 394.068L431.35 389.843C440.094 385.75 446.677 377.939 449.15 368.433H450.312C463.855 368.433 474.875 357.413 474.875 343.871C474.875 338.729 473.278 333.964 470.56 330.009C473.352 322.845 474.875 315.19 474.875 307.51C474.875 273.384 447.103 245.612 412.977 245.612H405.773C371.647 245.612 343.875 273.384 343.875 307.51C343.875 315.198 345.398 322.853 348.19 330.009C345.472 333.956 343.875 338.721 343.875 343.862C343.875 357.405 354.895 368.425 368.438 368.425H369.6C372.073 377.939 378.656 385.75 387.4 389.835L386.344 394.06C363.148 399.185 344.17 415.094 334.484 435.89C329.375 426.196 322.366 417.64 313.909 410.722C317.413 402.575 319.312 393.757 319.312 384.8V311.112C319.312 274.997 289.928 245.612 253.812 245.612C217.697 245.612 188.312 274.997 188.312 311.112V384.8C188.312 393.757 190.212 402.575 193.724 410.722C185.259 417.64 178.258 426.196 173.149 435.89C163.463 415.094 144.485 399.185 121.29 394.06L120.233 389.835C128.978 385.741 135.56 377.931 138.033 368.425H139.188C152.73 368.425 163.75 357.405 163.75 343.862C163.75 338.721 162.153 333.956 159.435 330.001C162.227 322.845 163.75 315.19 163.75 307.51V304.865C163.75 291.217 156.57 278.87 144.853 272.124C133.505 255.503 114.797 245.612 94.6475 245.612C60.522 245.612 32.75 273.384 32.75 307.51C32.75 315.198 34.2729 322.853 37.0648 330.009C34.3466 333.956 32.75 338.721 32.75 343.862C32.75 357.405 43.7704 368.425 57.3125 368.425H58.4751C60.9478 377.939 67.5305 385.75 76.2747 389.835L75.2186 394.06C41.3059 401.56 16.375 432.083 16.375 467.256V491.237H0V507.612H507.625V491.237H491.25ZM401.188 402.166L403.48 392.987H415.262L417.562 402.166V409.362C417.562 413.882 413.894 417.55 409.375 417.55C404.856 417.55 401.188 413.882 401.188 409.362V402.166ZM450.312 352.05V335.675C454.832 335.675 458.5 339.343 458.5 343.862C458.5 348.382 454.832 352.05 450.312 352.05ZM360.25 343.862C360.25 339.343 363.918 335.675 368.438 335.675V352.05C363.918 352.05 360.25 348.382 360.25 343.862ZM369.944 319.3H368.438C366.251 319.3 364.164 319.677 362.141 320.217C360.938 316.09 360.25 311.808 360.25 307.51C360.25 282.415 380.67 261.987 405.773 261.987H412.986C438.08 261.987 458.508 282.407 458.508 307.51C458.508 311.817 457.812 316.099 456.617 320.225C454.586 319.677 452.499 319.3 450.312 319.3H448.806C445.416 309.794 436.41 302.925 425.75 302.925H393C382.34 302.925 373.334 309.794 369.944 319.3ZM384.812 327.487C384.812 322.968 388.481 319.3 393 319.3H425.75C430.269 319.3 433.938 322.968 433.938 327.487V360.237C433.938 369.268 426.593 376.612 417.562 376.612H401.188C392.157 376.612 384.812 369.268 384.812 360.237V327.487ZM343.875 467.256C343.875 441.482 361.028 418.934 385.017 411.401C386.073 423.977 396.529 433.925 409.375 433.925C422.221 433.925 432.677 423.977 433.733 411.401C457.722 418.934 474.875 441.482 474.875 467.256V491.237H343.875V473.569V467.256ZM204.688 384.8V311.112C204.688 284.02 226.72 261.987 253.812 261.987C280.905 261.987 302.938 284.02 302.938 311.112V384.8C302.938 390.531 301.857 396.181 299.924 401.511C293.276 398.055 286.104 395.452 278.498 393.937L277.155 389.098C287.561 383.613 294.75 372.805 294.75 360.237V302.925H278.375V319.3C276.082 319.3 269.107 319.3 264.497 309.696C260.125 300.608 250.578 294.729 240.164 294.729C225.115 294.737 212.875 306.986 212.875 322.035V360.237C212.875 372.805 220.064 383.613 230.47 389.098L229.127 393.945C221.521 395.452 214.349 398.064 207.692 401.511C205.768 396.181 204.688 390.531 204.688 384.8ZM262 376.612H245.625C236.594 376.612 229.25 369.268 229.25 360.237V322.035C229.25 316.017 234.154 311.112 240.172 311.104C244.323 311.104 248.073 313.331 249.735 316.795C255.589 328.969 265.758 335.675 278.375 335.675V360.237C278.375 369.268 271.031 376.612 262 376.612ZM275.174 414.75C274.65 418.459 273.847 422.119 272.889 425.737H234.736C233.778 422.127 232.975 418.467 232.451 414.75L231.796 410.157C233.401 409.821 235.014 409.51 236.668 409.297L242.055 408.601L246.386 392.987H261.23L265.578 408.601L270.957 409.297C272.611 409.51 274.224 409.821 275.829 410.157L275.174 414.75ZM266.896 442.112C263.416 449.489 259.044 456.449 253.812 462.737C248.581 456.457 244.209 449.498 240.729 442.112H266.896ZM216.027 415.65L216.232 417.075C219.646 440.983 230.937 463.572 248.024 480.659L253.812 486.44L259.601 480.651C276.688 463.564 287.979 440.974 291.393 417.067L291.598 415.642C313.008 426.376 327.5 448.499 327.5 473.569V491.237H180.125V473.569C180.125 448.499 194.617 426.376 216.027 415.65ZM77.3309 410.41L88.2858 432.312L79.7299 440.86L75.9718 410.803C76.4303 410.681 76.8724 410.525 77.3309 410.41ZM90.5538 400.217L92.355 392.987H104.137L105.946 400.217L98.25 415.618L90.5538 400.217ZM119.161 410.41C119.619 410.525 120.062 410.681 120.52 410.803L116.77 440.86L108.214 432.312L119.161 410.41ZM139.188 352.05V335.675C143.707 335.675 147.375 339.343 147.375 343.862C147.375 348.382 143.707 352.05 139.188 352.05ZM49.125 343.862C49.125 339.343 52.793 335.675 57.3125 335.675V352.05C52.793 352.05 49.125 348.382 49.125 343.862ZM57.3125 312.414V319.3C55.1264 319.3 53.0386 319.677 51.0163 320.217C49.8127 316.09 49.125 311.808 49.125 307.51C49.125 282.407 69.5446 261.987 94.6475 261.987C109.541 261.987 123.369 269.389 131.647 281.809L133.595 284.716L135.528 285.682C142.831 289.342 147.375 296.686 147.375 304.857V307.502C147.375 311.808 146.679 316.09 145.484 320.217C143.461 319.677 141.374 319.3 139.188 319.3V302.925H122.812V319.3C119.865 319.3 112.038 319.3 108.116 305.578C104.865 294.197 94.8358 286.55 83.1768 286.55C68.9142 286.55 57.3125 298.152 57.3125 312.414ZM73.6875 312.414C73.6875 307.182 77.945 302.925 83.1768 302.925C87.4507 302.925 91.1514 305.799 92.3632 310.073C97.0792 326.587 107.903 335.675 122.812 335.675V360.237C122.812 369.268 115.468 376.612 106.438 376.612H90.0625C81.0317 376.612 73.6875 369.268 73.6875 360.237V312.414ZM32.75 467.256C32.75 446.665 43.7131 428.161 60.3337 417.681L67.6369 476.115L98.25 445.502L128.855 476.115L136.158 417.681C152.779 428.153 163.742 446.665 163.742 467.256V473.569V491.237H32.75V467.256Z" fill="white"/>
</svg>
