<svg width="453" height="360" viewBox="0 0 453 360" fill="none" xmlns="http://www.w3.org/2000/svg">
<path d="M72.7285 38.5541C71.6668 38.5533 70.6153 38.7189 69.6341 39.0416C68.653 39.3642 67.7615 39.8376 67.0105 40.4344C66.2596 41.0313 65.664 41.7401 65.2578 42.5202C64.8516 43.3003 64.6428 44.1364 64.6433 44.9808C64.6428 45.8251 64.8516 46.6612 65.2578 47.4413C65.664 48.2214 66.2596 48.9302 67.0105 49.5271C67.7615 50.124 68.653 50.5973 69.6341 50.9199C70.6153 51.2426 71.6668 51.4083 72.7285 51.4075H105.039C106.1 51.4083 107.152 51.2426 108.133 50.9199C109.114 50.5973 110.006 50.124 110.757 49.5271C111.508 48.9302 112.103 48.2214 112.509 47.4413C112.916 46.6612 113.124 45.8251 113.124 44.9808C113.124 44.1364 112.916 43.3003 112.509 42.5202C112.103 41.7401 111.508 41.0313 110.757 40.4344C110.006 39.8376 109.114 39.3642 108.133 39.0416C107.152 38.7189 106.1 38.5533 105.039 38.5541H72.7285Z" fill="white"/>
<path d="M105.039 64.2578C103.978 64.2582 102.928 64.4248 101.948 64.748C100.968 65.0711 100.078 65.5446 99.3282 66.1414C98.5785 66.7382 97.984 67.4466 97.5785 68.2261C97.173 69.0056 96.9646 69.841 96.9651 70.6845C96.9646 71.5281 97.173 72.3635 97.5785 73.143C97.984 73.9225 98.5785 74.6309 99.3282 75.2276C100.078 75.8244 100.968 76.2979 101.948 76.6211C102.928 76.9443 103.978 77.1108 105.039 77.1112H153.527C154.588 77.1112 155.639 76.945 156.619 76.622C157.599 76.2989 158.49 75.8255 159.24 75.2287C159.99 74.6319 160.585 73.9234 160.991 73.1437C161.397 72.364 161.605 71.5283 161.605 70.6845C161.605 69.8404 161.396 69.0046 160.99 68.2247C160.585 67.4448 159.989 66.7361 159.239 66.1393C158.488 65.5424 157.597 65.069 156.616 64.7462C155.636 64.4234 154.585 64.2574 153.523 64.2578H105.039Z" fill="white"/>
<path d="M185.845 64.2578C184.784 64.2574 183.732 64.4234 182.752 64.7462C181.771 65.069 180.88 65.5424 180.129 66.1393C179.379 66.7361 178.784 67.4448 178.378 68.2247C177.972 69.0046 177.763 69.8404 177.764 70.6845C177.763 71.5286 177.972 72.3645 178.378 73.1444C178.784 73.9243 179.379 74.6329 180.129 75.2298C180.88 75.8266 181.771 76.3 182.752 76.6228C183.732 76.9457 184.784 77.1116 185.845 77.1112H250.488C251.549 77.1108 252.599 76.9443 253.579 76.6211C254.559 76.2979 255.449 75.8244 256.199 75.2276C256.949 74.6309 257.543 73.9225 257.949 73.143C258.354 72.3635 258.563 71.5281 258.562 70.6845C258.563 69.841 258.354 69.0056 257.949 68.2261C257.543 67.4466 256.949 66.7382 256.199 66.1414C255.449 65.5446 254.559 65.0711 253.579 64.748C252.599 64.4248 251.549 64.2582 250.488 64.2578H185.845Z" fill="white"/>
<path d="M105.039 89.9615C103.978 89.9619 102.928 90.1285 101.948 90.4517C100.968 90.7749 100.078 91.2484 99.3282 91.8451C98.5785 92.4419 97.984 93.1503 97.5785 93.9298C97.173 94.7093 96.9646 95.5447 96.9651 96.3882C96.9646 97.2318 97.173 98.0672 97.5785 98.8467C97.984 99.6262 98.5785 100.335 99.3282 100.931C100.078 101.528 100.968 102.002 101.948 102.325C102.928 102.648 103.978 102.815 105.039 102.815H137.361C138.422 102.815 139.473 102.649 140.454 102.327C141.434 102.004 142.325 101.53 143.076 100.933C143.827 100.337 144.422 99.628 144.828 98.8481C145.234 98.0682 145.442 97.2323 145.442 96.3882C145.442 95.5444 145.234 94.7088 144.828 93.9291C144.422 93.1494 143.827 92.4409 143.077 91.8441C142.327 91.2473 141.437 90.7738 140.456 90.4508C139.476 90.1278 138.425 89.9615 137.364 89.9615H105.039Z" fill="white"/>
<path d="M169.682 89.9615C168.621 89.9619 167.571 90.1285 166.591 90.4517C165.611 90.7749 164.721 91.2484 163.972 91.8451C163.222 92.4419 162.627 93.1503 162.222 93.9298C161.816 94.7093 161.608 95.5447 161.608 96.3882C161.608 97.2318 161.816 98.0672 162.222 98.8467C162.627 99.6262 163.222 100.335 163.972 100.931C164.721 101.528 165.611 102.002 166.591 102.325C167.571 102.648 168.621 102.815 169.682 102.815H185.845C186.906 102.815 187.957 102.649 188.937 102.326C189.917 102.003 190.808 101.529 191.558 100.932C192.308 100.336 192.903 99.6271 193.309 98.8474C193.714 98.0677 193.923 97.2321 193.922 96.3882C193.923 95.5444 193.714 94.7088 193.309 93.9291C192.903 93.1494 192.308 92.4409 191.558 91.8441C190.808 91.2473 189.917 90.7738 188.937 90.4508C187.957 90.1278 186.906 89.9615 185.845 89.9615H169.682Z" fill="white"/>
<path d="M105.039 115.662C103.978 115.663 102.927 115.829 101.947 116.153C100.967 116.476 100.077 116.95 99.3269 117.547C98.5771 118.144 97.9826 118.853 97.5774 119.633C97.1722 120.412 96.9641 121.248 96.9651 122.092C96.9646 122.936 97.173 123.771 97.5785 124.55C97.984 125.33 98.5785 126.038 99.3282 126.635C100.078 127.232 100.968 127.705 101.948 128.029C102.928 128.352 103.978 128.518 105.039 128.519H169.682C170.744 128.519 171.795 128.353 172.775 128.03C173.756 127.707 174.647 127.234 175.398 126.637C176.148 126.04 176.743 125.332 177.149 124.552C177.555 123.772 177.764 122.936 177.764 122.092C177.765 121.248 177.556 120.411 177.151 119.631C176.745 118.851 176.15 118.142 175.399 117.545C174.648 116.948 173.757 116.474 172.776 116.151C171.795 115.828 170.744 115.662 169.682 115.662H105.039Z" fill="white"/>
<path d="M202.004 115.662C200.943 115.663 199.892 115.829 198.912 116.153C197.932 116.476 197.042 116.95 196.292 117.547C195.542 118.144 194.948 118.853 194.542 119.633C194.137 120.412 193.929 121.248 193.93 122.092C193.93 122.936 194.138 123.771 194.543 124.55C194.949 125.33 195.543 126.038 196.293 126.635C197.043 127.232 197.933 127.705 198.913 128.029C199.893 128.352 200.943 128.518 202.004 128.519H234.325C235.387 128.519 236.438 128.353 237.419 128.03C238.399 127.707 239.29 127.234 240.041 126.637C240.791 126.04 241.387 125.332 241.793 124.552C242.199 123.772 242.407 122.936 242.407 122.092C242.408 121.248 242.2 120.411 241.794 119.631C241.388 118.851 240.793 118.142 240.042 117.545C239.292 116.948 238.401 116.474 237.42 116.151C236.439 115.828 235.387 115.662 234.325 115.662H202.004Z" fill="white"/>
<path d="M72.7285 154.222C71.6674 154.222 70.6165 154.387 69.6359 154.709C68.6552 155.032 67.7641 155.504 67.0132 156.101C66.2624 156.697 65.6666 157.405 65.26 158.184C64.8534 158.964 64.6438 159.799 64.6433 160.643C64.6428 161.487 64.8516 162.324 65.2578 163.104C65.664 163.884 66.2596 164.592 67.0105 165.189C67.7615 165.786 68.653 166.26 69.6341 166.582C70.6153 166.905 71.6668 167.071 72.7285 167.07H121.205C122.267 167.07 123.318 166.904 124.299 166.581C125.279 166.259 126.17 165.785 126.921 165.188C127.671 164.591 128.267 163.883 128.673 163.103C129.078 162.323 129.287 161.487 129.287 160.643C129.286 159.799 129.077 158.964 128.67 158.185C128.264 157.406 127.669 156.698 126.918 156.102C126.168 155.506 125.277 155.033 124.297 154.71C123.317 154.388 122.266 154.222 121.205 154.222H72.7285Z" fill="white"/>
<path d="M282.806 64.2578C281.745 64.2578 280.694 64.4241 279.714 64.7471C278.734 65.0701 277.843 65.5435 277.093 66.1403C276.343 66.7372 275.748 67.4457 275.342 68.2254C274.937 69.0051 274.728 69.8407 274.729 70.6845C274.728 71.5286 274.937 72.3645 275.343 73.1444C275.749 73.9243 276.344 74.6329 277.094 75.2298C277.845 75.8266 278.736 76.3 279.717 76.6228C280.697 76.9457 281.749 77.1116 282.81 77.1112H315.132C316.192 77.1108 317.243 76.9443 318.222 76.6211C319.202 76.2979 320.092 75.8244 320.842 75.2276C321.592 74.6309 322.186 73.9225 322.592 73.143C322.997 72.3635 323.206 71.5281 323.205 70.6845C323.206 69.841 322.997 69.0056 322.592 68.2261C322.186 67.4466 321.592 66.7382 320.842 66.1414C320.092 65.5446 319.202 65.0711 318.222 64.748C317.243 64.4248 316.192 64.2582 315.132 64.2578H282.806Z" fill="white"/>
<path d="M218.167 89.9615C217.105 89.9611 216.054 90.1271 215.073 90.4499C214.093 90.7728 213.202 91.2461 212.451 91.843C211.701 92.4398 211.105 93.1485 210.699 93.9284C210.293 94.7083 210.085 95.5442 210.085 96.3882C210.085 97.2323 210.293 98.0682 210.699 98.8481C211.105 99.628 211.701 100.337 212.451 100.933C213.202 101.53 214.093 102.004 215.073 102.327C216.054 102.649 217.105 102.815 218.167 102.815H282.81C283.871 102.815 284.921 102.648 285.901 102.325C286.881 102.002 287.771 101.528 288.521 100.931C289.27 100.335 289.865 99.6262 290.27 98.8467C290.676 98.0672 290.884 97.2318 290.884 96.3882C290.884 95.5447 290.676 94.7093 290.27 93.9298C289.865 93.1503 289.27 92.4419 288.521 91.8451C287.771 91.2484 286.881 90.7749 285.901 90.4517C284.921 90.1285 283.871 89.9619 282.81 89.9615H218.167Z" fill="white"/>
<path d="M105.039 179.923C102.897 179.924 100.844 180.601 99.3296 181.806C97.8156 183.01 96.9651 184.644 96.9651 186.347C96.9646 187.19 97.173 188.026 97.5785 188.805C97.984 189.585 98.5785 190.293 99.3282 190.89C100.078 191.487 100.968 191.96 101.948 192.283C102.928 192.607 103.978 192.773 105.039 192.773H137.361C138.422 192.774 139.473 192.608 140.454 192.285C141.434 191.962 142.325 191.489 143.076 190.892C143.827 190.295 144.422 189.587 144.828 188.807C145.234 188.027 145.442 187.191 145.442 186.347C145.442 185.503 145.233 184.667 144.827 183.888C144.42 183.108 143.825 182.4 143.075 181.803C142.324 181.207 141.433 180.734 140.453 180.411C139.472 180.089 138.422 179.923 137.361 179.923H105.039Z" fill="white"/>
<path d="M395.93 0.00303698C393.788 0.0026149 391.734 0.678527 390.219 1.88217L83.1728 246.06C82.4219 246.657 81.8262 247.365 81.4197 248.145C81.0133 248.925 80.8041 249.76 80.8041 250.605C80.8041 251.449 81.0133 252.285 81.4197 253.064C81.8262 253.844 82.4219 254.553 83.1728 255.149C84.6876 256.353 86.7418 257.03 88.8836 257.03C91.0255 257.03 93.0797 256.353 94.5944 255.149L401.641 10.9712C402.392 10.3746 402.987 9.66621 403.394 8.88643C403.8 8.10665 404.01 7.27081 404.01 6.4267C404.01 5.58258 403.8 4.74674 403.394 3.96696C402.987 3.18718 402.392 2.47875 401.641 1.88217C400.126 0.677413 398.072 0.00038314 395.93 0V0.00303698Z" fill="white"/>
<path d="M363.608 64.2578L395.93 109.239H331.287L363.608 64.2578Z" fill="white"/>
<path d="M363.608 57.8372C362.184 57.837 360.785 58.1363 359.553 58.7046C358.321 59.2729 357.299 60.09 356.592 61.0733L324.27 106.051C323.569 107.028 323.203 108.135 323.209 109.26C323.214 110.385 323.591 111.489 324.301 112.462C325.011 113.435 326.03 114.243 327.256 114.804C328.482 115.366 329.872 115.662 331.287 115.662H395.93C397.345 115.661 398.734 115.365 399.959 114.803C401.185 114.242 402.203 113.434 402.913 112.461C403.623 111.488 403.999 110.384 404.004 109.259C404.01 108.134 403.643 107.028 402.943 106.051L370.625 61.0733C369.918 60.09 368.896 59.2729 367.664 58.7046C366.432 58.1363 365.033 57.837 363.608 57.8372ZM363.608 77.2114L382.008 102.815H345.209L363.608 77.2114Z" fill="white"/>
<path d="M323.205 109.239V250.608C323.205 252.312 324.057 253.947 325.572 255.152C327.088 256.357 329.143 257.034 331.287 257.034C333.43 257.034 335.486 256.357 337.001 255.152C338.517 253.947 339.368 252.312 339.368 250.608V115.665H355.527V250.605C355.527 252.309 356.378 253.944 357.894 255.149C359.41 256.354 361.465 257.031 363.608 257.031C365.752 257.031 367.807 256.354 369.323 255.149C370.838 253.944 371.69 252.309 371.69 250.605V109.239H323.205Z" fill="white"/>
<path d="M355.527 109.239V250.608C355.527 252.312 356.379 253.947 357.894 255.152C359.41 256.357 361.465 257.034 363.608 257.034C365.752 257.034 367.807 256.357 369.323 255.152C370.838 253.947 371.69 252.312 371.69 250.608V115.665H387.845V250.605C387.845 252.309 388.697 253.945 390.213 255.15C391.728 256.356 393.784 257.033 395.928 257.033C398.072 257.033 400.128 256.356 401.644 255.15C403.16 253.945 404.012 252.309 404.012 250.605V109.239H355.527Z" fill="white"/>
<path d="M8.08516 244.178C3.61883 244.178 0.00378418 247.056 0.00378418 250.605V263.455C0.00378418 274.022 10.952 282.732 24.2441 282.732H428.248C441.54 282.732 452.488 274.022 452.488 263.455V250.605C452.488 247.053 448.869 244.178 444.407 244.178H8.08516ZM226.248 257.028C228.391 257.028 230.447 257.705 231.962 258.911C233.478 260.116 234.329 261.75 234.329 263.455C234.329 265.159 233.478 266.794 231.962 267.999C230.447 269.205 228.391 269.882 226.248 269.882C224.105 269.882 222.049 269.205 220.534 267.999C219.018 266.794 218.167 265.159 218.167 263.455C218.167 261.75 219.018 260.116 220.534 258.911C222.049 257.705 224.105 257.028 226.248 257.028Z" fill="white"/>
<path d="M169.682 269.882C167.541 269.883 165.489 270.56 163.975 271.764C162.462 272.968 161.61 274.6 161.608 276.302V327.71C161.608 329.413 162.459 331.047 163.973 332.252C165.487 333.457 167.54 334.135 169.682 334.136H282.81C284.952 334.135 287.005 333.457 288.519 332.252C290.033 331.047 290.884 329.413 290.884 327.71V276.302C290.882 274.6 290.03 272.968 288.517 271.764C287.003 270.56 284.951 269.883 282.81 269.882H169.682ZM177.764 282.732H274.725V321.286H177.764V282.732Z" fill="white"/>
<path d="M24.2403 0.00303698C10.9559 0.00303698 0 8.70958 0 19.2801V263.455C0 274.022 10.9559 282.732 24.2403 282.732H428.248C441.54 282.732 452.488 274.022 452.488 263.455V19.277C452.488 8.71262 441.54 0 428.248 0L24.2403 0.00303698ZM24.2403 12.8504H428.248C432.867 12.8504 436.333 15.6068 436.333 19.277V263.455C436.333 267.128 432.867 269.882 428.248 269.882H24.2403C19.6251 269.882 16.1589 267.125 16.1589 263.455V19.277C16.1589 15.6068 19.6251 12.8504 24.2403 12.8504Z" fill="white"/>
<path d="M149.485 327.713H303.008C307.322 327.5 311.643 328.018 315.685 329.234C319.728 330.451 323.399 332.336 326.455 334.767C329.512 337.197 331.883 340.117 333.412 343.332C334.941 346.546 335.594 349.983 335.326 353.413H117.163C116.895 349.983 117.547 346.546 119.077 343.331C120.606 340.116 122.978 337.196 126.034 334.766C129.091 332.335 132.763 330.449 136.806 329.233C140.849 328.017 145.17 327.499 149.485 327.713Z" fill="white"/>
<path d="M149.484 321.286L149.981 321.301C126.97 320.16 107.665 335.515 109.097 353.814C109.225 355.446 110.131 356.978 111.629 358.098C113.128 359.217 115.107 359.84 117.163 359.84H335.326C337.382 359.841 339.361 359.219 340.86 358.1C342.36 356.981 343.266 355.449 343.395 353.817C344.827 335.515 325.523 320.16 302.508 321.301L303.004 321.289L149.484 321.286ZM148.988 334.127C149.153 334.134 149.319 334.137 149.484 334.136H303.008C303.173 334.136 303.339 334.132 303.504 334.124C314.406 333.587 323.324 339.206 326.118 346.993H126.37C129.168 339.206 138.09 333.587 148.984 334.124L148.988 334.127Z" fill="white"/>
</svg>
