<svg width="595" height="595" viewBox="0 0 595 595" fill="none" xmlns="http://www.w3.org/2000/svg">
<path d="M288.011 107.074H199.867V88.0958H395.126V107.074H306.983V144.895H288.011V107.074ZM306.983 448.438H288.011V486.26H199.867V505.238H395.126V486.26H306.983V448.438ZM194.857 97.5879C194.857 151.134 151.258 194.695 97.6656 194.695C44.0726 194.695 0.467285 151.134 0.467285 97.5879C0.467285 44.0421 44.0663 0.474243 97.6656 0.474243C151.265 0.474243 194.857 44.0421 194.857 97.5879ZM97.6656 175.724C113.992 175.724 129.162 170.687 141.718 162.102V154.477C141.718 142.453 131.929 132.667 119.896 132.667H75.4412C63.4088 132.667 53.6193 142.447 53.6193 154.477V162.109C66.1757 170.687 81.3391 175.73 97.672 175.73L97.6656 175.724ZM175.886 97.5879C175.886 54.4994 140.798 19.4457 97.6656 19.4457C54.5331 19.4457 19.4392 54.4994 19.4392 97.5879C19.4392 115.498 25.5672 131.977 35.7593 145.17C39.9894 127.157 56.1561 113.689 75.4412 113.689H119.896C139.181 113.689 155.348 127.157 159.578 145.164C169.764 131.97 175.886 115.498 175.886 97.5879ZM136.472 67.6286C136.472 89.0162 119.059 106.415 97.6656 106.415C76.2718 106.415 58.8527 89.0162 58.8527 67.6286C58.8527 46.241 76.2655 28.8483 97.6656 28.8483C119.066 28.8483 136.472 46.2474 136.472 67.6286ZM117.5 67.6286C117.5 56.7111 108.599 47.8198 97.6656 47.8198C86.7323 47.8198 77.8246 56.7047 77.8246 67.6286C77.8246 78.5525 86.7323 87.4374 97.6656 87.4374C108.599 87.4374 117.5 78.5525 117.5 67.6286ZM400.143 97.5879C400.143 44.0421 443.742 0.474243 497.335 0.474243C550.927 0.474243 594.533 44.0421 594.533 97.5879C594.533 151.134 550.934 194.695 497.335 194.695C443.735 194.695 400.143 151.134 400.143 97.5879ZM497.335 175.724C513.667 175.724 528.831 170.68 541.394 162.102V154.477C541.394 142.453 531.604 132.667 519.565 132.667H475.116C463.078 132.667 453.288 142.447 453.288 154.477V162.102C465.845 170.687 481.002 175.724 497.335 175.724ZM419.115 97.5879C419.115 115.498 425.243 131.97 435.428 145.164C439.658 127.151 455.825 113.689 475.116 113.689H519.565C538.85 113.689 555.017 127.151 559.247 145.164C569.433 131.97 575.561 115.498 575.561 97.5879C575.561 54.4994 540.467 19.4457 497.335 19.4457C454.202 19.4457 419.115 54.4994 419.115 97.5879ZM458.522 67.6286C458.522 46.241 475.934 28.8483 497.335 28.8483C518.735 28.8483 536.147 46.2474 536.147 67.6286C536.147 89.0098 518.735 106.415 497.335 106.415C475.934 106.415 458.522 89.0162 458.522 67.6286ZM477.494 67.6286C477.494 78.5525 486.401 87.4374 497.335 87.4374C508.268 87.4374 517.175 78.5525 517.175 67.6286C517.175 56.7047 508.268 47.8198 497.335 47.8198C486.401 47.8198 477.494 56.7047 477.494 67.6286ZM399.325 252.862C399.325 284.036 386.986 301.819 373.924 320.65C367.784 329.496 361.528 338.72 356.09 349.848C360.799 354.457 363.739 360.868 363.739 367.963C363.739 376.854 359.125 384.665 352.179 389.197V397.392C352.179 428.067 324.67 444.117 297.494 444.117C270.317 444.117 242.808 428.067 242.808 397.392V389.204C235.862 384.672 231.242 376.861 231.242 367.969C231.242 360.778 234.277 354.31 239.095 349.682C233.53 338.112 227.082 329.458 220.794 321.091C207.874 303.871 195.656 287.603 195.656 252.869C195.656 196.747 241.332 151.089 297.487 151.089C353.643 151.089 399.312 196.747 399.312 252.869L399.325 252.862ZM256.63 361.552C253.16 361.552 250.227 364.486 250.227 367.957C250.227 371.428 253.16 374.355 256.63 374.355H338.377C341.847 374.355 344.773 371.428 344.773 367.957C344.773 364.486 341.847 361.552 338.377 361.552H256.63ZM333.214 393.41H261.786V397.385C261.786 416.453 280.298 425.133 297.5 425.133C314.702 425.133 333.214 416.453 333.214 397.385V393.41ZM380.353 252.862C380.353 207.204 343.189 170.054 297.5 170.054C251.812 170.054 214.641 207.204 214.641 252.862C214.641 281.262 224.06 293.81 235.977 309.687C242.731 318.687 250.259 328.742 256.757 342.58H338.377C338.377 342.58 338.422 342.587 338.441 342.587C344.658 329.579 351.86 319.16 358.339 309.828C370.64 292.103 380.353 278.098 380.353 252.862ZM324.255 231.718L286.35 269.577L270.745 253.994C267.039 250.299 261.032 250.299 257.326 254.007C253.626 257.72 253.633 263.722 257.339 267.43L279.646 289.706C279.646 289.706 279.666 289.719 279.678 289.731C280.119 290.172 280.605 290.562 281.11 290.901C281.11 290.908 281.122 290.908 281.122 290.908C281.122 290.908 281.122 290.908 281.135 290.914C281.135 290.914 281.135 290.92 281.148 290.92C281.148 290.92 281.152 290.922 281.161 290.927C281.161 290.927 281.161 290.927 281.174 290.933C281.186 290.94 281.174 290.933 281.186 290.933C281.186 290.933 281.186 290.933 281.199 290.94C281.212 290.946 281.212 290.946 281.212 290.946C281.212 290.946 281.212 290.946 281.225 290.946C282.771 291.937 284.554 292.429 286.324 292.429H286.445C288.273 292.403 290.1 291.854 291.672 290.78C291.672 290.78 291.672 290.78 291.685 290.773L291.698 290.767C291.717 290.754 291.711 290.767 291.711 290.761C291.711 290.761 291.711 290.761 291.723 290.748C291.723 290.748 291.723 290.748 291.723 290.741H291.736C291.736 290.741 291.736 290.729 291.749 290.729C291.749 290.729 291.753 290.726 291.762 290.722C292.184 290.415 292.599 290.07 292.976 289.693L337.578 245.134C341.284 241.433 341.291 235.425 337.591 231.718C333.885 228.004 327.878 228.004 324.172 231.711L324.255 231.718ZM194.857 497.612C194.857 551.158 151.258 594.719 97.6656 594.719C44.0726 594.719 0.467285 551.158 0.467285 497.612C0.467285 444.066 44.0663 400.505 97.6656 400.505C151.265 400.505 194.857 444.066 194.857 497.612ZM97.6656 575.748C113.992 575.748 129.162 570.711 141.718 562.126V554.501C141.718 542.477 131.929 532.698 119.896 532.698H75.4412C63.4088 532.698 53.6193 542.477 53.6193 554.501V562.133C66.1757 570.711 81.3391 575.754 97.672 575.754L97.6656 575.748ZM175.886 497.612C175.886 454.53 140.798 419.476 97.6656 419.476C54.5331 419.476 19.4392 454.524 19.4392 497.612C19.4392 515.522 25.5672 532.001 35.7593 545.194C39.9894 527.181 56.1561 513.72 75.4412 513.72H119.896C139.181 513.72 155.348 527.181 159.572 545.194C169.758 532.001 175.886 515.522 175.886 497.612ZM136.472 467.653C136.472 489.04 119.059 506.446 97.6656 506.446C76.2718 506.446 58.8527 489.04 58.8527 467.653C58.8527 446.265 76.2655 428.872 97.6656 428.872C119.066 428.872 136.472 446.271 136.472 467.653ZM117.5 467.653C117.5 456.735 108.599 447.844 97.6656 447.844C86.7323 447.844 77.8246 456.729 77.8246 467.653C77.8246 478.577 86.7323 487.468 97.6656 487.468C108.599 487.468 117.5 478.577 117.5 467.653ZM459.64 251.533C459.589 246.291 455.416 242.06 450.061 242.137L427.965 242.354C422.731 242.405 418.52 246.694 418.571 251.936C418.622 257.145 422.859 261.332 428.054 261.332H428.15L450.247 261.114C455.48 261.063 459.691 256.774 459.64 251.533ZM418.392 314.251C420.239 316.06 422.635 316.961 425.032 316.961C427.492 316.961 429.952 316.009 431.811 314.111C435.473 310.371 435.409 304.363 431.677 300.694L417.99 287.283C414.245 283.614 408.245 283.672 404.571 287.418C400.909 291.157 400.973 297.165 404.705 300.834L418.392 314.251ZM417.287 215.079L430.815 201.285C434.482 197.546 434.425 191.538 430.687 187.868C426.942 184.193 420.942 184.257 417.268 187.996L403.74 201.79C400.072 205.53 400.13 211.538 403.868 215.207C405.715 217.022 408.117 217.924 410.514 217.924C412.974 217.924 415.428 216.978 417.287 215.079ZM135.36 251.533C135.309 256.774 139.514 261.063 144.753 261.114L166.85 261.332H166.946C172.141 261.332 176.384 257.145 176.429 251.936C176.48 246.694 172.275 242.405 167.035 242.354L144.939 242.137C139.61 242.105 135.411 246.291 135.36 251.533ZM177.017 287.29L163.336 300.7C159.597 304.369 159.534 310.378 163.201 314.117C165.055 316.009 167.515 316.961 169.975 316.961C172.371 316.961 174.767 316.06 176.614 314.251L190.295 300.841C194.033 297.172 194.097 291.163 190.429 287.424C186.768 283.678 180.755 283.621 177.017 287.29ZM191.26 201.797L177.732 188.003C174.058 184.263 168.051 184.206 164.313 187.875C160.575 191.544 160.518 197.552 164.185 201.292L177.713 215.086C179.573 216.978 182.026 217.93 184.486 217.93C186.883 217.93 189.285 217.022 191.132 215.213C194.87 211.544 194.928 205.536 191.26 201.797ZM594.539 497.612C594.539 551.158 550.94 594.719 497.341 594.719C443.742 594.719 400.149 551.158 400.149 497.612C400.149 444.066 443.748 400.505 497.341 400.505C550.934 400.505 594.539 444.066 594.539 497.612ZM497.341 575.748C513.674 575.748 528.837 570.705 541.4 562.126V554.501C541.4 542.477 531.61 532.698 519.572 532.698H475.123C463.084 532.698 453.295 542.477 453.295 554.501V562.126C465.851 570.711 481.008 575.748 497.341 575.748ZM575.567 497.612C575.567 454.53 540.473 419.476 497.341 419.476C454.208 419.476 419.121 454.524 419.121 497.612C419.121 515.522 425.249 531.995 435.435 545.188C439.665 527.175 455.831 513.713 475.116 513.713H519.565C538.85 513.713 555.017 527.175 559.247 545.181C569.433 531.988 575.561 515.516 575.561 497.606L575.567 497.612ZM536.154 467.653C536.154 489.04 518.741 506.446 497.341 506.446C475.941 506.446 458.528 489.04 458.528 467.653C458.528 446.265 475.941 428.872 497.341 428.872C518.741 428.872 536.154 446.271 536.154 467.653ZM517.182 467.653C517.182 456.735 508.274 447.844 497.341 447.844C486.408 447.844 477.5 456.729 477.5 467.653C477.5 478.577 486.408 487.468 497.341 487.468C508.274 487.468 517.182 478.577 517.182 467.653Z" fill="white"/>
</svg>
